<?xml version="1.0" encoding="UTF-8" standalone="no"?>
<svg
   version="1.0"
   width="512.000000pt"
   height="512.000000pt"
   viewBox="0 0 512.000000 512.000000"
   preserveAspectRatio="xMidYMid meet"
   id="svg8"
   sodipodi:docname="puffin.svg"
   inkscape:version="1.3.2 (091e20ef0f, 2023-11-25)"
   inkscape:export-filename="puffin.png"
   inkscape:export-xdpi="144"
   inkscape:export-ydpi="144"
   xmlns:inkscape="http://www.inkscape.org/namespaces/inkscape"
   xmlns:sodipodi="http://sodipodi.sourceforge.net/DTD/sodipodi-0.dtd"
   xmlns:xlink="http://www.w3.org/1999/xlink"
   xmlns="http://www.w3.org/2000/svg"
   xmlns:svg="http://www.w3.org/2000/svg">
  <defs
     id="defs8">
    <linearGradient
       id="linearGradient51"
       inkscape:label="2">
      <stop
         style="stop-color:#d52d00;stop-opacity:1;"
         offset="0"
         id="stop49" />
      <stop
         style="stop-color:#b55690;stop-opacity:1;"
         offset="0.62072885"
         id="stop50" />
      <stop
         style="stop-color:#a30262;stop-opacity:1;"
         offset="0.99544418"
         id="stop51" />
    </linearGradient>
    <linearGradient
       id="linearGradient48"
       inkscape:label="2">
      <stop
         style="stop-color:#d52d00;stop-opacity:1;"
         offset="0"
         id="stop46" />
      <stop
         style="stop-color:#b55690;stop-opacity:1;"
         offset="0.62072885"
         id="stop47" />
      <stop
         style="stop-color:#a30262;stop-opacity:1;"
         offset="0.99544418"
         id="stop48" />
    </linearGradient>
    <linearGradient
       id="linearGradient7">
      <stop
         style="stop-color:#ff0000;stop-opacity:1;"
         offset="0"
         id="stop9" />
      <stop
         style="stop-color:#ff0000;stop-opacity:0;"
         offset="1"
         id="stop10" />
    </linearGradient>
    <linearGradient
       id="linearGradient7-1"
       inkscape:label="2">
      <stop
         style="stop-color:#d52d00;stop-opacity:1;"
         offset="0"
         id="stop7" />
      <stop
         style="stop-color:#b55690;stop-opacity:1;"
         offset="0.62072885"
         id="stop11" />
      <stop
         style="stop-color:#a30262;stop-opacity:1;"
         offset="0.99544418"
         id="stop8" />
    </linearGradient>
    <clipPath
       clipPathUnits="userSpaceOnUse"
       id="clipPath274">
      <path
         id="path275"
         style="fill:#ff0000;fill-opacity:1;fill-rule:nonzero;stroke:none;stroke-width:7.5"
         d="m 1957.3096,4186.5869 v -521.9678 h 333.3105 v 521.9678 z m 329.9121,-7.749 c 0.068,0.022 0.1185,-0.038 0.06,-0.132 -0.015,-0.023 -0.023,-0.01 -0.03,-0.03 -0.022,-0.03 -0.03,-0.06 -0.06,-0.088 -0.023,-0.023 -0.045,-0.052 -0.075,-0.075 0.03,-0.015 0.075,-0.038 0.06,-0.1027 -0.01,-0.015 -0.01,-0.015 -0.015,-0.03 0,-0.015 0.023,-0.015 0.015,-0.03 -0.01,-0.01 -0.023,-0.01 -0.03,-0.015 v -0.015 c 0,-0.03 -0.01,-0.06 -0.015,-0.088 -0.01,-0.03 -0.023,-0.068 -0.03,-0.1027 -0.01,-0.023 -0.023,-0.045 -0.03,-0.075 0,-0.023 5e-4,-0.038 0,-0.06 -9e-4,-0.023 0,-0.052 0,-0.075 0.015,-0.144 -0.1268,-0.159 -0.1463,-0.015 0,0.022 -9e-4,0.06 0,0.088 0,0.03 0.01,0.06 0.015,0.088 0.01,0.015 0.01,0.03 0.015,0.045 -0.01,-0.015 -0.023,-0.023 -0.03,-0.03 -0.023,-0.023 -0.037,-0.03 -0.06,-0.045 -0.023,-0.015 -0.037,-0.075 -0.06,-0.088 -0.114,-0.068 -0.1972,0.03 -0.132,0.1028 l -0.015,0.015 0.06,0.088 c 0.03,0.03 0.052,0.068 0.088,0.088 -0.015,-0.01 -0.045,-0.023 -0.06,-0.03 -0.03,-0.015 -0.06,-0.045 -0.088,-0.06 -0.03,-0.015 -0.06,-0.015 -0.088,-0.03 -0.023,-0.01 -0.053,-0.03 -0.075,-0.045 -0.1103,-0.088 -0.204,0.045 -0.088,0.132 0.023,0.015 0.052,0.03 0.075,0.045 0.03,0.015 0.06,0.015 0.088,0.03 0.03,0.015 0.06,0.045 0.088,0.06 0.023,0.01 0.038,0.03 0.06,0.045 0.01,0.015 0.015,0.015 0.03,0.03 0.01,0.01 0.015,0.023 0.03,0.03 0.01,0.01 0.023,0.022 0.045,0.03 0.022,0.01 0.052,0.015 0.075,0.03 0.023,0.015 0.037,0.03 0.06,0.045 0.023,0.015 0.037,0.023 0.06,0.045 0.023,0.023 0.037,0.038 0.06,0.06 0.023,0.023 0.037,0.045 0.06,0.075 0.015,0.015 0,0.015 0.015,0.03 0.023,0.03 0.052,0.052 0.075,0.06 z" />
    </clipPath>
    <linearGradient
       inkscape:collect="always"
       xlink:href="#linearGradient48"
       id="linearGradient8"
       x1="228.44263"
       y1="165.87888"
       x2="351.61145"
       y2="165.87888"
       gradientUnits="userSpaceOnUse"
       spreadMethod="repeat" />
    <linearGradient
       inkscape:collect="always"
       xlink:href="#linearGradient51"
       id="linearGradient44"
       x1="252.88242"
       y1="191.23854"
       x2="336.23483"
       y2="191.23854"
       gradientUnits="userSpaceOnUse" />
    <linearGradient
       inkscape:collect="always"
       xlink:href="#linearGradient7-1"
       id="linearGradient46"
       x1="244.40929"
       y1="211.32767"
       x2="309.29642"
       y2="211.32767"
       gradientUnits="userSpaceOnUse" />
    <linearGradient
       inkscape:collect="always"
       xlink:href="#linearGradient7-1"
       id="linearGradient53"
       x1="388.23199"
       y1="123.30351"
       x2="396.74258"
       y2="123.30351"
       gradientUnits="userSpaceOnUse" />
  </defs>
  <sodipodi:namedview
     id="namedview8"
     pagecolor="#1e1e1e"
     bordercolor="#000000"
     borderopacity="0.25"
     inkscape:showpageshadow="2"
     inkscape:pageopacity="0.0"
     inkscape:pagecheckerboard="false"
     inkscape:deskcolor="#d1d1d1"
     inkscape:document-units="pt"
     inkscape:zoom="2.8284271"
     inkscape:cx="249.96225"
     inkscape:cy="256.32621"
     inkscape:window-width="2560"
     inkscape:window-height="1378"
     inkscape:window-x="0"
     inkscape:window-y="0"
     inkscape:window-maximized="1"
     inkscape:current-layer="g8" />
  <metadata
     id="metadata1">
Created by potrace 1.16, written by Peter Selinger 2001-2019
</metadata>
  <g
     transform="translate(0.000000,512.000000) scale(0.100000,-0.100000)"
     fill="#000000"
     stroke="none"
     id="g8"
     style="stroke:#ffffff;stroke-opacity:1;stroke-width:39.99999998;stroke-dasharray:none;stroke-linecap:round;stroke-dashoffset:0;paint-order:stroke markers fill;stroke-linejoin:round;opacity:1"
     inkscape:export-filename="puffin.png"
     inkscape:export-xdpi="96"
     inkscape:export-ydpi="96">
    <path
       style="fill:#000000;fill-opacity:1;stroke:none;stroke-width:40;stroke-linecap:round;stroke-linejoin:round;stroke-dasharray:none;stroke-dashoffset:0;stroke-opacity:1;paint-order:stroke markers fill"
       d="m 3236.7041,4679.2138 c -63.2182,-0.3906 -128.9654,-5.1347 -196.4648,-14.3847 -342.9982,-47 -580.0104,-166.0061 -680.0098,-340.0049 -27,-47 -36.9986,-56.0049 -82.998,-70.0049 -203.9988,-65.9994 -435.9928,-239.9963 -526.9922,-394.9951 -60,-101.9994 -83.0029,-192.0035 -78.0029,-303.0029 4.9994,-84.9994 13.2098,-136.9372 26.2098,-124.9372 3,3 13.7872,45.946 15.7872,118.946 2,110.9988 5.9942,142.9873 23.9942,186.9873 77.9994,187.9988 275.0109,371.0074 485.0097,452.0068 75.1845,28.85 127.427,42.3956 144.7266,36.665 0.031,-0.01 0.057,-0.019 0.088,-0.029 0.021,-0.01 0.022,-0.012 0.029,-0.015 0.018,-0.01 0.024,-0.01 0.073,-0.029 0.103,-0.049 0.2056,-0.097 0.3076,-0.1465 0.104,-0.049 0.2173,-0.099 0.3223,-0.1465 0.105,-0.047 0.2016,-0.1005 0.3076,-0.1465 0.103,-0.045 0.2046,-0.088 0.3076,-0.1318 0.1,-0.042 0.2067,-0.092 0.3077,-0.1318 0.104,-0.041 0.2036,-0.077 0.3076,-0.1172 0.106,-0.039 0.2152,-0.08 0.3222,-0.1172 0.108,-0.036 0.2143,-0.068 0.3223,-0.1025 0.111,-0.037 0.2259,-0.081 0.3369,-0.1172 0.118,-0.036 0.2346,-0.067 0.3516,-0.1026 0.12,-0.038 0.2305,-0.08 0.3515,-0.1172 0.127,-0.039 0.2539,-0.079 0.3809,-0.1171 0.136,-0.04 0.2742,-0.078 0.4102,-0.1172 0.143,-0.043 0.2954,-0.092 0.4394,-0.1319 0.152,-0.044 0.3021,-0.075 0.4541,-0.1172 0.159,-0.044 0.3098,-0.09 0.4688,-0.1318 0.168,-0.045 0.3447,-0.088 0.5127,-0.1318 0.176,-0.046 0.3513,-0.1015 0.5273,-0.1465 0.185,-0.049 0.356,-0.1005 0.542,-0.1465 0.192,-0.049 0.3949,-0.097 0.5859,-0.1465 0.198,-0.051 0.388,-0.096 0.586,-0.1465 0.203,-0.053 0.4122,-0.1081 0.6152,-0.1611 0.208,-0.055 0.4072,-0.1061 0.6152,-0.1611 0.21,-0.054 0.4209,-0.1062 0.6299,-0.1612 0.21,-0.056 0.4199,-0.1197 0.6299,-0.1757 0.21,-0.056 0.4209,-0.1062 0.6299,-0.1612 0.213,-0.057 0.4315,-0.1198 0.6445,-0.1758 0.221,-0.058 0.4382,-0.1167 0.6592,-0.1757 0.232,-0.061 0.4701,-0.1148 0.7031,-0.1758 l 0.7031,-0.1905 c 0.235,-0.063 0.4692,-0.1244 0.7032,-0.1904 0.226,-0.064 0.4635,-0.1264 0.6885,-0.1904 0.2208,-0.063 0.4391,-0.1284 0.6591,-0.1904 0.215,-0.062 0.4296,-0.1255 0.6446,-0.1905 0.21,-0.063 0.4208,-0.1254 0.6298,-0.1904 0.208,-0.065 0.4073,-0.1244 0.6153,-0.1904 0.204,-0.066 0.4122,-0.1351 0.6152,-0.2051 0.2,-0.068 0.4016,-0.1331 0.6006,-0.2051 0.199,-0.071 0.4016,-0.1467 0.6006,-0.2197 0.205,-0.074 0.4112,-0.1447 0.6152,-0.2197 0.212,-0.077 0.4179,-0.1554 0.6299,-0.2344 0.213,-0.079 0.4315,-0.169 0.6445,-0.249 0.22,-0.082 0.4392,-0.1651 0.6592,-0.2491 0.221,-0.085 0.4402,-0.1766 0.6592,-0.2636 0.215,-0.086 0.4305,-0.1621 0.6445,-0.2491 0.212,-0.088 0.4189,-0.1863 0.6299,-0.2783 0.207,-0.09 0.4112,-0.1686 0.6152,-0.2636 0.196,-0.09 0.393,-0.1824 0.586,-0.2784 0.173,-0.087 0.3437,-0.1833 0.5127,-0.2783 0.147,-0.081 0.2964,-0.16 0.4394,-0.249 0.129,-0.08 0.2529,-0.166 0.3809,-0.249 0.114,-0.072 0.2385,-0.1468 0.3515,-0.2198 0.106,-0.07 0.2027,-0.134 0.3077,-0.205 0.103,-0.071 0.2056,-0.1458 0.3076,-0.2198 0.097,-0.069 0.193,-0.135 0.293,-0.205 0.091,-0.065 0.1883,-0.1401 0.2783,-0.2051 0.088,-0.065 0.1736,-0.1245 0.2636,-0.1905 0.088,-0.066 0.1737,-0.137 0.2637,-0.205 0.084,-0.067 0.169,-0.1235 0.249,-0.1905 0.08,-0.065 0.1544,-0.137 0.2344,-0.205 0.062,-0.053 0.1158,-0.1052 0.1758,-0.1612 0.05,-0.048 0.1111,-0.097 0.1611,-0.1465 0.041,-0.045 0.092,-0.085 0.1319,-0.1318 0.03,-0.037 0.073,-0.079 0.1025,-0.1172 0.02,-0.033 0.043,-0.069 0.073,-0.1025 0.068,-0.085 0.08,-0.1677 0.059,-0.2197 l 24.7705,-23.7891 c 25,-23 25.9952,-25.9967 19.9952,-120.9961 -8,-125.9994 4.0123,-160.0016 102.0117,-296.001 91.9994,-127.9988 101.0004,-144.9951 86.001,-169.9951 -9,-17 -10.001,-16.0053 -11.001,8.9941 0,21 -24.0123,58.0006 -87.0117,135 -47.8379,59.0432 -76.8009,98.7609 -95.5957,138.2227 -0.3549,-0.1983 -0.7174,-0.3829 -1.0694,-0.5859 -1.3697,-0.785 -2.7258,-1.593 -4.0722,-2.417 -1.4261,-0.8846 -2.8438,-1.7763 -4.2481,-2.6953 -1.5112,-1.0001 -3.0146,-2.0113 -4.5117,-3.0323 -1.6452,-1.1307 -3.2869,-2.2675 -4.9219,-3.4131 -1.681,-1.1738 -3.3612,-2.3499 -4.9951,-3.5888 -1.5539,-1.1868 -3.0865,-2.4027 -4.5703,-3.6768 -1.4481,-1.2354 -2.8887,-2.4947 -4.3067,-3.7646 -1.4332,-1.2887 -2.8652,-2.5701 -4.2773,-3.8819 -1.2963,-1.204 -2.5856,-2.4123 -3.7939,-3.706 -0.9508,-1.0272 -1.8739,-2.0835 -2.7979,-3.1348 -0.8488,-0.9458 -1.7061,-1.8885 -2.5781,-2.8125 -0.7682,-0.8204 -1.5365,-1.6353 -2.3145,-2.4463 -0.7228,-0.7482 -1.4619,-1.4772 -2.2119,-2.1972 -0.6827,-0.6584 -1.3771,-1.3123 -2.0801,-1.9483 -0.6813,-0.6151 -1.3617,-1.225 -2.0507,-1.831 -0.7132,-0.6217 -1.4147,-1.2514 -2.1387,-1.8604 -0.7254,-0.6122 -1.4473,-1.2197 -2.1973,-1.8017 -0.6166,-0.4944 -1.2455,-0.984 -1.875,-1.4649 -12.0859,-13.0194 -40.0913,-32.4559 -91.3916,-62.959 -44.4545,-25.7366 -83.2507,-46.1134 -99.9463,-52.6318 -0.4983,-0.2427 -0.9951,-0.4884 -1.4941,-0.7324 -1.1998,-0.5727 -2.3917,-1.1652 -3.5889,-1.7432 -1.2644,-0.6011 -2.5323,-1.2094 -3.7939,-1.8164 -1.3145,-0.6234 -2.6048,-1.2806 -3.9258,-1.8896 -1.3205,-0.5979 -2.6492,-1.1939 -3.9844,-1.7579 -1.3768,-0.5861 -2.7545,-1.1482 -4.1455,-1.6992 -1.4363,-0.5821 -2.8778,-1.1498 -4.3213,-1.7138 -1.4694,-0.5833 -2.9565,-1.1639 -4.4385,-1.7139 -1.4555,-0.5384 -2.9078,-1.0783 -4.3652,-1.6113 -1.4888,-0.5412 -2.9736,-1.0551 -4.4824,-1.5381 -1.4849,-0.4762 -2.9738,-0.9583 -4.4678,-1.4063 -1.5019,-0.4442 -3.0008,-0.8907 -4.5117,-1.3037 -1.5405,-0.428 -3.09,-0.8242 -4.6436,-1.2012 -1.5497,-0.3854 -3.1065,-0.7655 -4.6582,-1.1425 -1.5018,-0.3689 -3.0001,-0.74 -4.497,-1.128 -1.4386,-0.3579 -2.873,-0.7362 -4.3067,-1.1132 -1.2185,-0.312 -2.4333,-0.6378 -3.6474,-0.9668 -0.2338,-0.062 -0.4691,-0.1278 -0.7032,-0.1905 -0.6712,-9.3475 -1.9218,-15.7031 -4.0722,-15.7031 -4.9345,0 -8.6929,5.9581 -11.9092,14.1797 -0.8734,-0.5754 -1.7476,-1.1462 -2.6367,-1.6992 -1.0823,-0.6634 -2.1707,-1.3153 -3.2959,-1.9043 -1.1672,-0.6166 -2.3399,-1.2308 -3.5303,-1.8018 -1.2734,-0.6043 -2.5537,-1.1952 -3.8525,-1.7432 -1.3742,-0.5706 -2.7583,-1.122 -4.1748,-1.582 -1.4409,-0.4878 -2.8837,-0.9583 -4.3506,-1.3623 -1.5149,-0.4086 -3.0494,-0.7893 -4.585,-1.1133 -1.6102,-0.3567 -3.2158,-0.6927 -4.834,-1.0107 -1.7044,-0.3425 -3.4036,-0.6908 -5.1123,-1.0108 -1.801,-0.3434 -3.6051,-0.6617 -5.4052,-1.0107 -1.8678,-0.3389 -3.7421,-0.6884 -5.6104,-1.0254 -1.8632,-0.3458 -3.7302,-0.6924 -5.5957,-1.0254 -1.7515,-0.321 -3.4918,-0.6508 -5.2441,-0.9668 -1.6458,-0.307 -3.2917,-0.6108 -4.9366,-0.9228 -1.6805,-0.32 -3.3742,-0.6262 -5.0537,-0.9522 -1.7502,-0.317 -3.4938,-0.6508 -5.2441,-0.9668 -1.8338,-0.337 -3.6596,-0.702 -5.4932,-1.04 -1.8279,-0.3426 -3.6526,-0.687 -5.4785,-1.04 -1.7526,-0.333 -3.5082,-0.6971 -5.2588,-1.0401 -1.774,-0.3602 -3.5429,-0.726 -5.3174,-1.084 -1.8713,-0.3866 -3.7463,-0.7496 -5.625,-1.0986 -1.9013,-0.356 -3.7992,-0.7121 -5.7129,-0.9961 -1.6427,-0.254 -3.2884,-0.4881 -4.9365,-0.7031 -1.525,-0.202 -3.0568,-0.3817 -4.5849,-0.5567 -1.4806,-0.171 -2.963,-0.3593 -4.4385,-0.5713 -1.3788,-0.198 -2.7533,-0.3945 -4.1309,-0.6005 -1.2398,-0.199 -2.4767,-0.4022 -3.706,-0.6592 -1.137,-0.239 -2.2673,-0.5114 -3.3985,-0.7764 -1.0715,-0.254 -2.148,-0.5213 -3.208,-0.8203 -1.0734,-0.292 -2.1396,-0.5679 -3.208,-0.8789 -1.0129,-0.272 -2.0352,-0.5443 -3.0469,-0.8203 -0.3576,-0.099 -0.7134,-0.1961 -1.0693,-0.293 l -0.015,-0.1025 -75.9961,-36.0059 c -40.6035,-19.335 -89.0464,-50.5806 -110.3321,-70.7226 1.1963,0.07 2.3917,0.1276 3.5889,0.1904 1.4102,0.071 2.8225,0.1304 4.2334,0.1904 1.5671,0.065 3.1344,0.1112 4.7021,0.1612 1.6471,0.048 3.2892,0.092 4.9366,0.1318 1.6421,0.05 3.2938,0.065 4.9365,0.073 1.6094,0 3.2099,0.012 4.8193,0.015 h 4.8194 c 1.6772,0 3.3618,0.013 5.039,0.015 1.7616,-0.01 3.5267,-0.039 5.2881,-0.059 1.7314,-0.02 3.4548,-0.082 5.1856,-0.1318 1.6372,-0.06 3.2709,-0.1104 4.9072,-0.1904 1.5192,-0.074 3.0384,-0.187 4.5556,-0.293 1.4081,-0.095 2.8145,-0.2109 4.2188,-0.3516 4.9583,1.4477 22.3082,6.3236 51.7236,5.3467 33.875,-1.125 81.8692,-5.8701 138.3692,-14.3701 56.9994,-9 146.0035,-18.9941 198.0029,-23.9941 l 94.9951,-8.0127 -75,-1.9922 c -92.5037,-1.9894 -406.0633,29.6187 -409.4092,40.7812 -1.0198,0.095 -2.0386,0.1977 -3.0615,0.2637 -1.5013,0.105 -3.0084,0.2083 -4.5117,0.2783 -1.6186,0.08 -3.2291,0.1304 -4.8486,0.1904 -1.7201,0.05 -3.4356,0.1119 -5.1563,0.1319 -1.75,0.02 -3.5086,0.049 -5.2588,0.059 -1.677,0 -3.3474,-0.012 -5.0244,-0.015 h -4.8193 c -1.6071,0 -3.2124,-0.01 -4.8194,-0.015 -1.628,0 -3.2651,-0.023 -4.8925,-0.073 -1.6431,-0.037 -3.279,-0.067 -4.9219,-0.1171 -1.5596,-0.045 -3.1284,-0.1012 -4.6875,-0.1612 -1.4019,-0.056 -2.8028,-0.1204 -4.2041,-0.1904 -1.3288,-0.068 -2.6562,-0.1397 -3.9844,-0.2197 -0.8849,-0.051 -1.7679,-0.082 -2.6514,-0.1172 -20.8112,-19.7924 -37.749,-33.7888 -37.749,-31.8018 0,3 13.0039,52.0098 29.0039,110.0098 17,56.9994 28.001,105.9883 26.001,107.9883 -7,8 -42.9986,-73.9889 -52.998,-122.9883 -11.5264,-50.5389 -18.9531,-143.4105 -10.1652,-140.4357 1.1234,0.3803 10.5068,5.6314 11.9804,9.4853 9.9994,28 53.1879,22.9396 245.1867,-5.0604 201.9988,-29.9994 403.9899,-22.9892 538.9893,16.0108 l 94.0136,27.9931 40.9864,-22.998 c 80.9994,-44 84.9988,-36.9938 -105,-162.9932 -301.9962,-199.999 -464.9891,-343.01 -711.9873,-624.0088 -160.9988,-183.9991 -258.0059,-317.9989 -321.0053,-442.9983 -15,-30 -55.0039,-84 -89.0039,-120 -72.9994,-77.9994 -107.9941,-125.0039 -98.9941,-134.0039 3,-3 16.9966,-5.9912 30.996,-5.9912 13,0 21.9952,-2.9981 19.9952,-7.9981 -24,-55.9994 -93.9991,-148.0074 -183.9991,-242.0068 -60.9994,-62.9994 -119.997,-127.9947 -131.997,-143.9941 -26,-34 -27.9912,-71.0088 -5.9912,-84.0088 11.9994,-7 5.997,-15.9922 -33.003,-46.9922 C 878.23829,1366.8297 833.24047,1305.831 876.24023,1281.831 c 11.99994,-7 -3.6e-4,-19 -60,-60 -128.99922,-89.9994 -216.00586,-179.0078 -216.00586,-223.00776 0,-24.99982 171.00096,10.99416 330,68.99416 7.99994,3 -5.00012,-16.9893 -30,-43.9893 -51.9997,-55.99962 -103.9942,-129.00894 -113.99414,-159.00876 -5,-17.99988 -1.00959,-20.99805 24.99023,-22.99805 44.99976,-4 139.00433,23.00805 209.00394,58.00781 34,16.99994 140.9938,83.98988 237.9932,148.9892 96.9994,65 186.0068,123.0088 197.0068,129.0088 12,6 75.9986,15.9981 142.998,22.9981 107.9994,11 128.0055,11.0004 175.0049,-3.999 86.9994,-27 177.0006,-36.9961 270,-30.9961 l 86.9971,6.9873 v -42.9932 -41.9971 l 25.0049,15.9961 c 36.9994,24 49.9902,19.9951 69.9902,-25.0049 10,-21.9994 32.0069,-50.999 47.0069,-63.999 25.9994,-21.99974 32.0039,-39.99293 59.0039,-166.99215 35.9994,-173.99898 37.9892,-196.99914 13.9892,-213.99902 -27,-19.99988 -37.9951,-18.00373 -79.9951,15.99609 -36,27.99982 -43.002,30 -127.002,30 -99.9994,0 -144.0015,-14.00512 -176.0009,-55.00488 -27,-32.99982 -20.9912,-45.99885 9.0088,-18.99903 13.9994,12.99994 39.9976,19.00196 86.997,22.00196 79.9994,3.99994 124.9903,-8.99915 114.9903,-33.99903 -5,-12.99988 -2.9946,-16.00097 10.0048,-11.00097 26,9.99994 128.0069,-30.99829 167.0069,-67.99805 37.9994,-35.99976 70.9883,-55.00488 92.9883,-55.00488 8,0 41.0078,-15.99524 73.0078,-34.99512 76.9994,-45.9997 148.9976,-73.00104 236.997,-86.00098 39,-5.99994 87.0006,-19.00006 105,-30 18,-9.99994 34.9981,-18.99902 37.9981,-18.99902 8,0 4.0092,25.99817 -9.9902,52.99805 l -15,26.99707 h 68.9941 c 75.9994,0 113.9932,-10.99725 147.9932,-41.99707 30.9994,-29.99982 29.0121,-6.99763 -6.9873,67.00195 -43,91.99946 -57.0036,99.99701 -138.003,86.99707 -48.9994,-7.99994 -89.9986,-7.99609 -142.998,-0.99609 -41,5.99994 -76.0069,11.99316 -77.0069,12.99316 -1,1 74.0075,1.01074 167.0069,1.01074 h 167.9883 l 40.0048,-32.00683 c 46,-36.99982 57.9946,-31.99976 34.9952,15 -33,66.99958 -90.9973,89.00201 -255.9961,97.00195 -162.9994,7.99994 -287.0045,24.00104 -314.0039,41.00098 -27,16.99988 -32.9991,39.99546 -78.9991,263.99414 -24.9994,120.99936 -33.9892,187.00976 -28.9892,215.00976 8,51.9994 43.9961,155.9941 60.9961,173.9941 13,14 148.9951,71.001 169.9951,71.001 7,0 14.999,-17.002 18.999,-37.002 10,-55.9994 31.0088,-88.998 69.0088,-112.998 38,-23 62.9967,-63.0061 150.9961,-235.00486 58.9994,-118.99928 65.9951,-152.00018 34.9951,-180 -19,-16.99994 -21.9883,-16.99598 -62.9883,-0.9961 -52.9994,19.99988 -139.0015,20.99598 -176.0009,0.9961 -33,-16.99994 -81.0059,-70.00012 -81.0059,-90 0,-9.99994 10.0059,-6.995 36.0059,10.00488 27.9994,18.99988 50,25.00488 90,25.00488 29.9994,0 53.9941,-5.00489 53.9941,-10.00488 0,-5.99994 15.0029,-19.00006 33.0029,-30 26,-15.99988 49.9938,-19.99512 132.9932,-19.99512 93.9994,0 103.0084,-2.00018 148.0078,-30 71.9994,-45.9997 175.9893,-95.99908 223.9893,-108.99902 22.9994,-5.99994 60.0019,-16.00587 82.0019,-21.00586 23,-5.99994 56.0108,-25.99621 76.0108,-45.99609 18.9994,-19.99988 36.9941,-34.00684 38.9941,-32.00684 11,9.99994 -19.0035,82.00512 -48.0029,115.00488 -28,31.99982 -28.9942,35.00385 -8.9942,29.00391 12,-4 54.9957,-2.00092 94.9951,3.99902 81,11.99994 114.9991,4.99293 153.9991,-32.00683 13,-11.99994 26.0039,-18 29.0039,-15 15,13.99988 -28.9981,98.00121 -67.9981,131.00097 -49.9994,42.99976 -154.9961,86.00098 -210.9961,86.00098 -51.9994,0 -229.0088,26.005 -279.0088,40.00488 -33.9994,9.99994 -44.0015,21.99371 -101.0009,117.99317 -84.9994,143.99933 -176.9912,316.99903 -185.9912,348.99903 -5,18 1.9951,56.9976 19.9951,116.997 l 26.001,90 188.9941,108.9991 c 356.9976,203.9988 521.0051,323.0129 719.0039,522.0117 150.9988,150.9988 228.0049,249.9889 295.0049,377.9883 78.9994,149.9988 94.9951,216.0129 94.9951,387.0117 0,114.9994 -3.999,156.9908 -18.999,204.9902 -12,38 -18.0069,84.0098 -17.0069,125.0098 1,35.9994 -4.9931,86.9902 -12.9931,114.9902 -9,28 -16,75 -15,105 v 55.0049 l 18.999,-34.9951 18.999,-35.0098 0.9961,63.999 c 0,62 1.0088,63.0118 24.0088,57.0118 28,-7 27.999,-15.0014 -11.001,127.998 -13,50 -34.999,115.9932 -48.999,147.9932 -13,30.9994 -24.0088,60.0029 -24.0088,63.0029 0,3 11.0049,4.9951 25.0049,4.9951 33,0 32.0004,17.9981 -3.999,82.9981 -16,27.9994 -44.0069,88.0117 -62.0069,132.0117 -87.9994,214.9988 -230.9943,380.9947 -432.9931,503.9941 -122.9994,73.4994 -289.8762,111.5625 -479.5313,110.3906 z m 33.1494,-30.6445 c 35.125,-1 88.8868,-5.7402 141.3868,-13.7402 114.9988,-17 201.9976,-48.0069 296.997,-107.0069 155.9994,-94.9994 284.9957,-228.9933 364.9951,-376.9921 21,-39 36.003,-71.001 33.003,-71.001 -3,0 -38.9957,50.9947 -79.9951,113.9941 -173.9994,262.9988 -449.0106,431.0069 -714.0088,437.0069 -26,1 -57.9971,4.9941 -71.9971,8.9941 -22,7 -5.5053,9.7451 29.6191,8.7451 z m 309.8877,-131.25 c 8.5,2 10.4883,-0.4892 10.4883,-6.4892 0,-16 -70.9996,-43.0088 -138.999,-54.0088 -41,-6 -92.9961,-6.9961 -135.9961,-0.9961 l -70.0049,7.998 120,6.0059 c 91.9994,5 130.0006,10.9971 165,26.9971 26,11.9994 41.0117,18.4931 49.5117,20.4931 z m -1030.5029,-57.4951 c 2,0 -19.0113,-23.9986 -46.0107,-52.998 -28,-30 -60.9971,-73.0059 -71.9971,-96.0059 -21,-39 -40.0029,-48.9941 -48.0029,-23.9941 -6,16.9994 59.0025,95 112.0019,135 28,20.9994 52.0088,37.998 54.0088,37.998 z m 435.1318,-44.4141 c 68.6543,-2.4609 138.7442,-12.5859 205.8692,-30.5859 61.9994,-17 156.9957,-55.9947 274.9951,-113.9941 182.9988,-90.9994 217.0006,-104.002 315,-127.002 52.9994,-13 51.0043,-13.0049 -64.9951,-10.0049 -77.9994,3 -162.9996,13 -243.999,30 -108.9994,24 -136.0055,25.9951 -235.0049,19.9951 l -112.9981,-6.9873 -67.0019,61.9922 c -70,63 -76.9996,65.9961 -168.999,60.9961 -26,-1 -53.9961,3.0088 -60.9961,9.0088 -25,21 -50.9991,-35.0045 -48.9991,-104.0039 1,-45 -3.0029,-68.0074 -18.0029,-92.0068 l -21.0059,-32.9883 h 30 c 17,0 54.0094,-11.0049 84.0088,-25.0049 29,-14 66.9981,-25.0049 82.9981,-25.0049 37.9994,0 99.9947,29.0059 143.9941,66.0059 29,24 46.9957,30.0049 139.9951,40.0049 119.9994,13.9994 173.0114,10.997 316.0108,-18.003 57.9994,-12 140,-21.0058 195,-21.0058 82.9994,-1 102,2.0015 150,26.0009 30,15 60.9941,26.9971 68.9941,26.9971 8,0 -14.0029,-13.9961 -48.0029,-30.9961 l -61.9922,-30.9961 37.002,-40.0049 c 35.9994,-39.9994 35.9921,-41.9951 31.9921,-109.9951 -6.9994,-94.9994 -57.9912,-196.0015 -140.9912,-281.0009 -103.9994,-104.9994 -203.008,-148.9971 -362.0068,-161.9971 -44,-4 -128.002,-18.0108 -187.002,-31.0108 -146.9988,-32.9994 -187.9912,-31.9902 -215.9912,5.0098 -37.9994,52 -110.0133,102.002 -203.0127,142.002 -109.9988,47.9994 -161.9898,89.0015 -238.9892,191.0009 -78.9994,104.9994 -94.0078,146.9977 -88.0078,251.9971 10,148.9994 79.007,257.001 201.0058,311.001 86.2494,37.4994 196.7101,54.6826 311.1328,50.581 z m -49.1308,-126.5918 c 17,1 41.9902,-6.9961 54.9902,-15.9961 14,-9.9994 34,-28.9931 45,-42.9931 11,-14 30.0117,-35.0069 42.0117,-47.0069 12,-12.9994 17.9971,-22.998 11.9971,-22.998 -5,0 -16.9971,10.002 -26.9971,22.002 -35.9994,46.9994 -84.0103,87.9951 -110.0097,94.9951 -15,3 -43.9942,0.01 -68.9942,-8.9942 -23.9994,-9 -43.0078,-11.998 -43.0078,-7.998 0,10 58.0098,27.9892 95.0098,28.9892 z m 10.6347,-68.833 c 4.7676,0.3802 9.5069,0.2725 13.7842,-0.3955 5.7031,-0.8906 10.5791,-2.7715 13.5791,-5.7715 11,-11.9994 -13.0029,-43.9892 -33.0029,-43.9892 -22,0 -34.001,14.9951 -26.001,34.9951 2.8125,8.4375 17.3382,14.0208 31.6406,15.1611 z m -64.2626,-72.6562 c 0.875,0.75 4.6162,-0.501 11.6162,-3.501 10,-3 15.0117,-8.9971 12.0117,-11.9971 -3,-3 -11.0035,-0.013 -18.0029,6.9873 -4.5,5 -6.5,7.7608 -5.625,8.5108 z m 198.6181,-8.5108 c 3,0 -12.999,-14.999 -33.999,-33.999 -22,-19 -43.0029,-34.9951 -48.0029,-34.9951 -9,0 72.0019,67.9941 82.0019,68.9941 z m -125.9912,-69.9902 c 11,1 16.9932,-2.0098 12.9932,-5.0098 -3,-3 -11.9991,-3.9961 -18.9991,-0.9961 -7.9994,3 -4.9941,6.0059 6.0059,6.0059 z m 958.6816,-43.1689 c 3.7325,3.1992 68.8102,-32.4635 142.3096,-78.8379 89.9994,-57 104.0039,-67.002 89.0039,-67.002 -11,0 -210.999,125.002 -228.999,142.002 -2.125,2.125 -2.8477,3.3808 -2.3145,3.8379 z m -1464.6826,-195.835 c 1,0 1.9922,-1.999 1.9922,-3.999 0,-3 -40,-26.002 -90,-52.002 -48.9994,-26 -87.9971,-49.0058 -86.9971,-51.0058 2,-2 37.9952,13.0068 79.9952,32.0068 118.9988,54.9994 114.0076,39.0043 -5.9912,-19.9951 l -108.003,-52.002 36.0059,-32.0068 c 40.9994,-36 105.9971,-71.001 131.9971,-71.001 9.9994,0 41.9976,6.0039 71.997,14.0039 70,18 53.0024,3.0059 -26.997,-23.9941 -84,-27 -197.9977,-35.0098 -296.9971,-20.0098 -44,7 -120.0098,15.999 -170.0098,18.999 l -88.9892,6.0059 67.998,18.0029 c 73.9994,19 219.001,82.9971 266.001,116.9971 25,18 208.998,119 217.998,120 z m 1595.9912,-40.0049 c 3,0 24.9991,-27.9922 48.9991,-61.9922 42.9994,-60.9994 87.0117,-139.0103 87.0117,-155.0097 0,-4 -18.001,24.0068 -41.001,62.0068 -22,39 -51.0029,84.0049 -63.0029,100.0049 -29,38.9994 -38.0069,54.9902 -32.0069,54.9902 z m -39.9902,-180 c 2,0 9.9922,-7.9922 16.9922,-16.9922 13,-16 11.9965,-16.999 -3.0029,-3.999 -17,13 -21.9893,20.9912 -13.9893,20.9912 z m -1303.7549,-20.874 c 15,0.125 37.251,-4.6211 74.751,-14.1211 32,-9 79.9961,-26.9971 105.9961,-41.9971 52.9994,-27.9994 106.0092,-79 95.0098,-90 -23,-22.9994 -235.0016,44.9991 -296.001,93.9991 -21,17.9994 -22.001,23.0019 -11.001,37.0019 8.5,10 16.2451,14.9922 31.2451,15.1172 z m 1342.749,-29.1211 c 3,0 25.003,-24.002 48.003,-52.002 24,-28.9994 36.0004,-46.9941 26.001,-38.9941 -20,16 -81.0034,90.9961 -74.004,90.9961 z m -168.1201,-70.6201 c 4.625,0.125 15.6207,-4.374 33.1201,-13.374 28,-14 101.9971,-80.0006 101.9971,-90 0,-14 -20,-3.0039 -60,30.9961 -32,28.9994 -48.9898,36.9951 -73.9892,34.9951 -17,-2 -40.0059,4.0078 -51.0059,13.0078 -19,14 -19.0014,14.9951 7.998,4.9951 16,-5 35.004,-10.0049 44.004,-10.0049 12.9994,0 13.0029,3 3.0029,15 -8,9.5 -9.752,14.2598 -5.127,14.3848 z m -936.8847,-119.3848 c 10,0 95.0133,-21.999 188.0127,-48.999 482.997,-139.9994 619.9986,-209.9977 727.998,-371.9971 53,-79.9994 77.9947,-159.9947 83.9941,-263.9941 6,-103.9994 19.0059,-84.0033 21.0059,30.9961 2,121.9994 -39.0098,247.0031 -125.0098,382.0019 -18.9994,29 -33.999,52.9903 -33.999,54.9903 0,1 62.9996,2.0068 138.999,2.0068 77,0 142.001,3.002 146.001,7.002 3,3 -14.9902,35.0054 -39.9902,70.0048 -26,34 -54.0069,75.9922 -62.0069,91.9922 l -15,28.0078 32.0069,-18.0029 c 55.9994,-33 135.9922,-122.0025 166.9922,-187.0019 111.9994,-227.9988 89.0003,-479.0077 -63.9991,-726.0059 -135.9988,-217.9988 -434.9998,-494.9973 -697.998,-645.9961 -80.9994,-47 -333.9986,-165 -352.998,-165 -2,0 73.0035,55.9957 168.0029,124.9951 216.9988,157.9994 365.001,280.0006 401.001,330 8,12 -5.0069,5 -32.0069,-15 -26,-19 -120.0006,-90.9947 -210,-158.9941 -203.9988,-154.9994 -350.9957,-252.0006 -499.9951,-330 -63.9994,-34 -119.0029,-60.9961 -123.0029,-60.9961 -4,0 13.9941,27 38.9941,60 25,32.9994 40.0029,60 33.0029,60 -6.9994,0 -44.9941,-33.0084 -83.9941,-73.0078 -56.9994,-58 -73.0059,-69.9932 -81.0059,-57.9932 -6.9994,11 -17.0019,6 -52.0019,-30 -23,-24 -55.9893,-65.999 -73.9893,-93.999 l -32.0068,-48.999 -8.9941,26.997 c -10,28 -26.001,36.9932 -26.001,12.9932 0,-7 -7.0108,-46.001 -16.0108,-86.001 l -16.9921,-72.9931 -22.002,37.0019 c -31,51 -36.0039,54.0029 -29.0039,18.0029 13,-62.9994 -76.9971,-191.0107 -116.9971,-166.0107 -6,3 -21.9951,30.0078 -34.9951,58.0078 -25,54 -31.0039,125.9957 -14.0039,169.9951 12,33 5.0039,32.9961 -15.9961,0.9961 -9,-14 -18.998,-47.9922 -22.998,-76.9922 l -7.002,-52.998 -13.0078,45 c -20,66.9994 -27.9912,153.9961 -20.9912,210.9961 5,40.9994 3.9941,47.0019 -6.0059,37.0019 -23,-22.9994 -47.0049,-138.0039 -40.0049,-194.0039 l 6.0059,-51.0058 -87.9932,-6.9873 c -85.9994,-6 -173,2.9902 -240,24.9902 -22.9994,7 -69.0113,9.0098 -136.0107,5.0098 l -101.001,-7.002 40.0049,35.9912 c 74.9994,67.9994 -53.9989,-13.0002 -341.9971,-213.999 -61.9994,-43 -144.0029,-94.99034 -183.0029,-114.99022 l -71.00101,-37.00195 108.00301,104.99997 c 58.9994,57.9994 104.0048,108.002 100.0048,112.002 -3,4 -48.0088,-31.0069 -99.0088,-77.0069 -141.99889,-126.99908 -162.00315,-141.99366 -74.0039,-53.9941 169.9994,167.9988 357.003,326.9922 408.003,346.9922 26.9994,10 87.9961,38.0068 135.9961,62.0068 l 87.0117,42.9932 50.9912,-37.002 c 47.9994,-32.9994 77.0016,-44.9986 206.001,-82.998 l 47.0068,-14.0039 -24.0088,28.0078 c -78.9994,94.9994 -48.9896,289.9986 65.0098,412.998 53.9994,59 89.9922,80.0049 166.9922,100.0049 43.9994,11 89.9986,33.9918 157.998,80.9912 110.9994,75.9994 214.9987,130.0016 367.9981,191.001 58.9994,23 137.0025,58.999 172.0019,78.999 67,37 261.9996,184.9996 303.999,228.999 l 25.0049,26.001 -30,-13.9892 c -16,-8 -61.9937,-20.0118 -102.9931,-27.0118 -68,-10.9994 -84.0006,-18.9976 -180,-86.997 -124.9994,-86.9994 -185.0006,-118.9981 -240,-127.9981 -58,-9 -51.0063,3.0059 12.9931,21.0059 57,17 246.0016,135.9898 356.001,223.9892 129.9994,104.9994 173.9941,189.0065 173.9941,336.0059 0,78.9994 -2.9976,97.0049 -26.997,145.0049 -35,67.9994 -61.9957,97.9961 -154.9951,165.9961 -84,62.9994 -112.002,102.9947 -112.002,158.9941 0,47 31.9932,105 57.9932,105 z m -459.7266,-161.001 c 1.4844,-0.062 1.7285,-1.2382 1.7285,-2.9882 0,-2 -27.9922,-23.9991 -61.9922,-48.9991 -34.9994,-24.9994 -93.9976,-73.0029 -131.997,-108.0029 -38,-35 -64.0073,-55.0039 -58.0079,-44.0039 18,34 102.9977,109.9947 176.9971,158.9941 53.25,35.25 68.8184,45.1875 73.2715,45 z m 421.7285,-164.7509 c 47,1 86.5098,-6.7471 110.0098,-23.2471 31,-22 36,-50.9996 15,-93.999 -35,-74 -125.0104,-137.9961 -215.0098,-150.9961 -31,-4 -40,-3.001 -30,3.999 13,8 13.0039,10.0049 -0.9961,10.0049 -9,0 -50,-24.0088 -90,-54.0088 -83.9994,-60.9994 -153.0006,-89 -255,-105 -38.9994,-6 -90.0049,-17.9971 -115.0049,-26.9971 -24.9994,-9 -88.9898,-18.0058 -148.9892,-21.0058 l -105,-5.9912 -130.0049,-126.0059 c -70.9994,-68.9994 -152.0039,-140.9981 -179.0039,-157.9981 -48,-31.9994 -47.9912,-31.9941 -20.9912,-38.9941 43.9994,-11 121.9937,3.0035 177.9931,33.0029 30,16 96.0094,70.9899 159.0088,133.9893 71,69.9994 101.9961,96 90.9961,75 -8,-17 -54.9976,-69.9971 -101.997,-116.9971 -87,-85.9994 -188.0108,-149.0039 -241.0108,-149.0039 -13,0 -18.9892,-4.001 -13.9892,-11.001 8,-13.9994 110.9898,-2.997 178.9892,18.003 73.9994,22.9994 155.0088,69.0097 144.0088,80.0097 -6,6 5,18.9918 30,35.9912 22,15 76.9961,69.0069 120.9961,122.0069 45,51.9994 83.9971,94.9951 86.9971,94.9951 15,0 -92.0045,-132.9996 -149.0039,-183.999 -37,-33 -63.9922,-63.9981 -61.9922,-67.9981 9,-14 63.9976,-7.999 101.997,11.001 63,33 154.004,112.9957 209.004,184.9951 63.9994,81.9994 71.0048,72.999 10.0048,-11.001 -44.9994,-60.9994 -116.0103,-125.9927 -200.0097,-181.9921 -40,-28 -55.0006,-32.0039 -90,-29.0039 -35,3.9994 -52.9928,-2.003 -106.9922,-33.003 -83.9994,-47.9994 -162.0006,-70.0049 -255,-70.0049 -74.9994,0 -110.0084,11.0118 -133.0078,42.0118 -11,15.9994 -14.9922,16.9882 -46.9922,2.9882 -19,-8 -42.0098,-13.9892 -50.0098,-13.9892 -27,0 -7.999,16.9941 26.001,23.9941 58.9994,11 154.0055,80.0026 280.0049,202.002 122.9994,118.9994 130.0006,122.9937 270,192.9931 130.9988,64 156.0045,81.0114 269.0039,181.0108 123.9994,108.9994 203.9957,161 304.9951,195 53.4994,18.5 107.9957,28.2383 154.9951,29.2383 z m -690.9961,-124.2481 c 3,0 -15.9976,-18.9971 -41.997,-41.9971 -27,-23.9994 -66.0079,-62.9931 -88.0079,-87.9931 l -39.9902,-45 33.0029,48.999 c 29,42 119.9922,125.9912 136.9922,125.9912 z m 929.0039,-144.9902 c 3,-2 -7.998,-25.0059 -22.998,-51.0059 -16,-26 -49.0039,-68.0029 -74.0039,-93.0029 -47,-46 -156.0049,-120.9961 -175.0049,-120.9961 -6,0 18.0088,20.0039 54.0088,44.0039 93.9994,62.9994 162.9902,128.0006 189.9902,180 14,25 26.0078,43.001 28.0078,41.001 z m -298.9746,-136.7139 c -0.031,-1.2969 -1.7744,-4.7978 -5.0244,-10.2978 -40,-67 -115.0098,-130.9981 -170.0098,-142.9981 -18.9994,-5 -10.9867,2.0098 23.0127,20.0098 29,15 73.9903,50.9951 99.9903,79.9951 36.7494,41.25 52.125,57.1816 52.0312,53.291 z m -181.2451,-20.3906 c 0.7324,-1.1953 -4.2803,-10.9014 -14.7803,-28.9014 -40.9994,-68.9994 -105.0078,-137.9976 -163.0078,-176.997 -33.9994,-23 -66.9892,-42.001 -73.9892,-41.001 -6,0 -2.002,5.9976 7.998,11.997 72.9994,46 147.001,111.9991 191.001,168.9991 34.3744,46.2494 51.5576,67.8955 52.7783,65.9033 z m -749.7803,-7.8955 c 2,0 -10.0015,-17.002 -26.0009,-37.002 -39,-48.9994 -177.0055,-182.0068 -220.0049,-212.0068 -52,-36 -46.9936,-18.9975 6.0058,22.0019 26,20 90.002,79.0016 142.002,131.001 51.9994,53 95.998,96.0059 97.998,96.0059 z m 790.4004,-201.1524 c 2.6485,-0.9843 -7.1484,-12.2349 -33.3984,-35.8593 -147.9994,-131.9994 -228.0098,-182.9883 -290.0098,-182.9883 -39.9994,0 -89.9951,31.9908 -109.9951,69.9902 -22,42 -13,49.0049 15,10.0049 26,-36 68.0074,-60 107.0068,-60 38,0 110.9889,43.9986 212.9883,127.998 55,45.625 93.9942,72.4952 98.4082,70.8545 z m -474.5215,-149.4726 c 4.375,-0.625 2.6192,-6.8838 -7.8808,-18.3838 -23,-26 -166.9967,-97.9922 -210.9961,-106.9922 -20,-3 -97.0123,-47.001 -177.0117,-101.001 -188.9988,-125.9988 -409.9903,-235.997 -474.9903,-236.997 -42.9994,-1 -48.0058,0.998 -51.0058,22.998 -4,23 -2.9922,22.9975 13.0078,7.9981 18,-19 38.0006,-16 120,15 119.9994,45.9994 434.0025,227.9951 502.0019,289.9951 12,12 38.0006,21.0019 60,22.0019 36,2 153.9889,56.0006 197.9883,90 14,11 24.5117,16.0059 28.8867,15.3809 z m 36.1231,-50.376 c 8,1 -75.0104,-58.9971 -185.0098,-131.9971 -328.9982,-219.9982 -531.9973,-333.0113 -750.9961,-421.0107 -107.9994,-43 -123.999,-43.9926 -123.999,-12.9932 0,34 18,47.9951 45,34.9951 34,-14.9994 109.9992,11.0016 292.998,101.001 180.9994,89.9994 304.0081,162.9963 542.0069,319.9951 90.9994,60 172,110.0098 180,110.0098 z m 69.9902,-30 c 3,0 -10.9961,-14.0068 -30.9961,-32.0068 -30.9994,-27 -133.9931,-92.0039 -117.9931,-74.0039 8,10 142.9892,106.0107 148.9892,106.0107 z m -399.8437,-351.4453 c 0.5937,-0.625 -1.6563,-3.0625 -5.1563,-6.5625 -52.9994,-52 -576.9908,-304.9947 -669.9902,-323.9941 -29,-6 -29.0098,-6.0049 -5.0098,4.9951 14,6 117.0104,54 230.0098,105 112.9994,51.9994 258.9908,122.0025 324.9902,157.0019 95.9994,51 123.375,65.4346 125.1563,63.5596 z m -201.2549,-218.8623 c 1.4844,0.047 1.0986,-1.1953 1.0986,-2.6953 0,-7 -131.9957,-82.001 -229.9951,-131.001 -153.9988,-76.9994 -453.9948,-165 -563.99417,-165 -56.99964,0 -41.01228,16.9941 21.9873,23.9941 87.99947,10 314.00257,68.0098 427.00197,110.0098 55,20 154.0055,65.001 220.0049,101.001 98.2494,51.7494 119.4434,63.5508 123.8965,63.6914 z m -314.8975,-89.6924 c 5,1 6.9951,-0.999 4.9951,-3.999 -11.9994,-11 -400.9912,-145.0108 -440.9912,-151.0108 -22.99988,-4 -40.00195,-4 -37.00195,0 4.99994,6 453.99805,153.0098 472.99805,155.0098 z m 1243.0078,-52.998 c 3,-3 -4,-17.9991 -15,-33.9991 -24.9994,-33.9994 -61.0068,-67.0117 -47.0068,-42.0117 18,33 57.0068,81.0108 62.0068,76.0108 z m 266.1621,-35.6983 c 2.6407,0.75 4.334,0.6924 4.834,-0.3076 1,-3 -8.0019,-44.0045 -22.0019,-89.0039 l -23.9942,-83.9941 36.9873,-71.001 c 71,-134.9994 173.0118,-317.99743 207.0118,-371.99707 18.9994,-28.99982 33.999,-61.99713 33.999,-71.99707 0,-10.99994 7.9883,-22.00098 17.9883,-26.00098 9,-3 53.0025,-29.0011 97.0019,-56.00098 44,-27.99982 106.0035,-60.01178 138.0029,-72.01172 65,-23.99982 76.9946,-43.99896 19.9952,-33.99902 -50,8.99994 -164.9918,67.00128 -230.9912,116.00098 -29,21.99988 -59.0059,40.00488 -66.0059,40.00488 -8,0 -23.9912,24.9934 -35.9912,57.99316 -11,30.99982 -69.002,145.01228 -127.002,252.01172 -112.9994,206.9988 -115.0082,213.9957 -99.0088,319.9951 l 7.002,45 -23.9941,-55.0049 c -17,-39.9994 -29.0006,-55.9931 -45,-57.9931 -52,-8 -8.0014,79.9937 67.998,132.9931 18.75,13.5 35.2476,23.0625 43.1689,25.3125 z M 1069.2334,1269.8193 c 3,0 -4.999,-8.9951 -18.999,-19.9951 -49.9999,-39 -199.99515,-140.9961 -199.99515,-135.9961 0,6 210.99415,155.9912 218.99415,155.9912 z m 1345.9131,-117.3486 c 8.1641,0.918 11.8359,-18.775 8.0859,-55.6494 -4.9994,-38 23.003,-209.99328 63.003,-391.9922 8,-37.99976 24.998,-86.00012 37.998,-105 20,-30.99982 20.9942,-36.99908 8.9942,-48.99902 -12,-10.99994 -10.9873,-16.00207 8.0127,-37.00195 27.9994,-29.99982 174.9937,-103.00592 222.9931,-111.00586 61,-9.99994 56.0043,-26.99506 -4.9951,-19.99512 -71.9994,8.99994 -184.9971,66.00231 -251.9971,127.00195 -29.9994,27.99982 -58.0107,49.99512 -61.0107,49.99512 -3,0 -5.9912,-9.00592 -5.9912,-21.00586 0,-10.99994 -4.0049,-16.9892 -10.0049,-13.98926 -18,10.99994 -11.0068,43.00012 12.9932,60 18.9994,12.99994 22.0058,23.99347 21.0058,72.99317 -2,71.99952 -52.9951,384.00193 -64.9951,397.00193 -15,15 -10.0039,-45.9982 15.9961,-206.99705 14,-83.99952 24.9941,-164.00793 23.9941,-178.00781 l -0.9961,-24.99024 -7.998,24.99024 c -4,13.99988 -18,79.0053 -30,145.00488 -31,171.99898 -40.001,205.00488 -56.001,205.00488 -22,0 -15.9951,23.999 10.0049,48.999 14,13 31.9971,38.9893 41.9971,58.9893 7.5,16.1244 14.0127,24.1025 18.9111,24.6533 z m 792.085,-412.64648 c -4,3 39.0103,-4.0069 95.0097,-17.00684 57,-12.99988 145.9889,-26.99224 197.9883,-31.99218 85.9994,-7 181.0029,-33.99616 168.0029,-45.9961 -3,-2.99994 -30.999,0.9903 -63.999,9.99024 -31.9994,7.99994 -74.9951,15 -94.9951,15 -70.9994,0 -278.0074,48.005 -302.0068,70.00488 z m 102.539,-59.78027 c 2.2813,0.34375 8.2071,-1.21485 18.4571,-5.21485 9,-3.99994 55.0117,-15.00103 102.0117,-26.00097 46.9994,-9.99994 98.9902,-18.99903 114.9902,-18.99903 23,0 27,-3.00494 15,-10.00488 -8,-5 -40.9937,-10.00488 -72.9931,-10.00488 -44,0 -70.9977,7.00012 -116.9971,30 -41.25,20.99988 -67.3125,39.19336 -60.4688,40.22461 z M 2574.4776,568.70117 c 2.75,0.625 8.2578,-0.37109 16.7578,-2.87109 13,-3 73.0039,-11.00684 134.0039,-17.00684 59.9994,-5.99994 111.9941,-12 113.9941,-15 2,-1.99994 -38,-3.99902 -90,-3.99902 -96.9994,0 -163.0049,12.00696 -175.0049,32.00684 -2.5,3.99994 -2.5009,6.24511 0.2491,6.87011 z m 36.914,-60.60058 c 3.2813,2.34369 15.8385,-1.78137 63.8379,-18.28125 32,-10.99994 107.9996,-28.9903 168.999,-39.99024 61,-11.99994 120.001,-25 131.001,-30 28,-12.99988 -114.001,-2.00384 -191.001,15.9961 -60.9994,12.99988 -173.9941,57.9981 -173.9941,67.99804 0,2 0.064,3.4961 1.1572,4.27735 z"
       id="path1"
       sodipodi:nodetypes="scccccccccsccccsssscccccscccscsccsccccscscccsscsscccccsccccscccscccccccccscccccccccccccccccccccsccccccccccccccccccccccccccccccscccccccccccccccccccccccccsccccccccccccccccscscsccsccccccccsccscccccccscccscccccccccsscccccccsccccsscccccccccccccsccccscscccsccsccccssccccscccsccccccscsscscccccccccccsccccccccscccccccccccsscccsscccscccssscccccssccccsscccccccccccccscsccccssscccccccccccsccscscccscsscscsscscsccscccccscscscsccccccsccccccccscsccssccsscccccsscssscsccccscssccsccssscccccccscccccsssccccccsccccccccccccsccccccccccccccccccccccccccccccccccsccsssscsccssccccsccscccccccccsccsccsccccccccsccscccccssccccscccscccsccccsscccccssccccsscsccscssccccccccccscccsccccsccsscccccssssscccscccccsccsscccccscccccscccccccsscsssccccccccsscccccccccsccscccccscsccscscsscccscssscccss" />
    <path
       d="m 2145,4128 c -161,-107 -296,-290 -320,-435 -4,-24 -11,-43 -16,-43 -8,0 -59,-73 -59,-85 0,-4 19,9 43,28 23,19 52,24.0901 65,30.0901 18,9 22,35.9099 22,71.9099 0,46 29,135 62,192 19.8887,32.9192 27.0781,39.9694 21.5682,21.7959 -2.5242,-8.3255 -7.7136,-21.9449 -15.5682,-40.7959 -27,-67 -45.4844,-187.6875 -38.4844,-209.6875 10,-32 30.4844,-1.3125 30.4844,34.6875 0,136 53,250 173,374 49,51 88,93 85,93 -2,0 -27,-15 -53,-32 z"
       id="path8"
       style="fill:#000000;fill-opacity:1;stroke:none;stroke-width:40;stroke-linecap:round;stroke-linejoin:round;stroke-dasharray:none;stroke-dashoffset:0;stroke-opacity:1;paint-order:stroke markers fill"
       sodipodi:nodetypes="ccssccscsccscsc" />
    <path
       style="fill:url(#linearGradient8);fill-opacity:1;fill-rule:nonzero;stroke:none;stroke-width:0.666667;stroke-linecap:round;stroke-linejoin:round;stroke-opacity:1;paint-order:stroke markers fill"
       d="m 314.45239,118.94971 c -4.38837,0.1388 -8.55539,1.72748 -12.68297,3.07436 -9.74695,3.2642 -19.02648,7.86734 -27.58213,13.55827 -13.28372,8.85959 -25.07377,20.0942 -34.08193,33.30789 -3.80573,5.68839 -7.20138,11.72514 -9.42006,18.21988 -2.11701,6.65938 -1.88088,13.74339 -2.15921,20.6442 -0.001,1.13668 -0.13725,2.29966 -0.0595,3.41952 0.86244,0.22443 1.24711,-0.3409 1.12218,-1.15814 0.61457,-5.88367 1.68149,-11.7654 3.89198,-17.28278 1.12409,-2.77223 2.16364,-5.64196 3.91651,-8.08423 0.16583,-0.2939 0.6521,-0.53865 0.54541,0.0325 -0.46504,3.41358 -1.46484,6.74089 -2.32237,10.07495 -1.64379,5.9244 -3.35169,11.8387 -4.80166,17.81177 0.34441,0.56145 1.1082,5.6e-4 1.45703,-0.2876 1.30586,-0.92782 2.3069,-2.24695 3.66285,-3.0957 0.43967,0.0362 0.2743,-0.51079 0.59716,-0.66919 2.76017,-2.4248 5.91065,-4.36504 9.04125,-6.26784 3.15188,-1.83853 6.47677,-3.35184 9.7256,-4.99656 0.47815,-0.18913 0.44709,-0.7829 0.0325,-1.0232 -1.0292,-1.20439 -0.83512,-2.94266 -0.84003,-4.41101 0.49546,-7.57846 2.05318,-15.08848 4.39181,-22.31937 l 2.28924,-6.16497 0.26234,-0.69517 0.39426,-1.20749 c 0.0103,-0.0449 0.02,-0.10798 0.0474,-0.18987 0.0447,-0.13382 0.0847,-0.30738 0.12354,-0.4735 0.0696,-0.29807 0.0435,-0.58775 -0.0316,-0.58766 -0.41901,4.8e-4 -1.48489,1.54295 -1.64692,1.93526 -3.68826,5.68513 -6.22013,12.05768 -8.09548,18.54794 -1.01654,3.52331 -1.63807,7.16041 -1.68109,10.83251 -0.14029,2.47933 -0.13404,5.28655 -1.8458,7.28653 -1.10076,1.06916 -2.71696,1.28694 -4.08502,1.87492 -2.52717,0.85878 -4.85764,2.21201 -6.89388,3.93333 -1.35934,0.9482 -2.64197,2.09926 -4.18688,2.72812 -0.28415,-0.17478 0.11598,-0.69602 0.16797,-0.95263 1.58404,-3.19165 3.72731,-6.08801 5.94239,-8.87696 0.53111,-0.58484 1.01453,-1.32911 1.79882,-1.5581 1.00928,-1.0998 1.21652,-2.68618 1.60848,-4.07741 0.77013,-4.09011 1.72079,-8.15489 3.28923,-12.01878 5.4111,-13.59959 14.43153,-25.50486 24.89625,-35.63569 6.47316,-6.17546 13.69187,-11.57858 21.48168,-15.98516 0.56378,-0.34782 0.0536,0.21823 -0.10156,0.41479 -5.79094,6.73442 -12.35397,12.77442 -17.96558,19.6665 -6.89889,8.45732 -12.47208,18.25357 -14.70628,29.02218 -1.05506,4.70163 -1.25413,9.53504 -1.48195,14.32528 -0.0356,1.26356 -0.43239,2.45095 -0.87036,3.61812 -0.17146,0.37377 0.17468,0.86611 0.5813,0.61133 1.83417,-0.75949 3.61328,-1.69091 5.62719,-1.89063 4.03809,-0.56418 8.02228,-1.44842 12.03066,-2.19215 1.42905,-0.22401 2.74475,-0.83189 4.01744,-1.49217 -0.0519,-0.63665 -0.40811,-1.32268 -0.469,-2.01221 -0.75938,-4.17333 -0.44837,-8.44271 -0.48975,-12.66328 0.0671,-6.01627 1.0443,-12.01095 2.78761,-17.77202 2.65962,-8.74644 7.79937,-16.54908 14.03276,-23.16316 2.71671,-2.86221 5.38691,-5.79457 8.38447,-8.36736 0.16171,-0.19952 0.54683,-0.0382 0.20166,0.18994 -3.31033,3.98382 -6.63547,7.99119 -9.2495,12.48236 -3.8907,6.65614 -7.39451,13.57021 -10.06617,20.81085 -1.54547,4.37521 -2.87995,8.88538 -3.28168,13.52514 -0.31121,5.02492 0.15694,10.05225 0.31267,15.07077 0.11652,0.43793 -0.0265,1.11644 0.37672,1.40214 4.81208,-0.79907 9.18426,-3.1221 13.50373,-5.27865 6.36581,-3.33139 12.64643,-6.88245 18.48599,-11.08108 3.70278,-2.75693 6.52778,-6.60684 10.62186,-8.84681 3.19636,6.73726 8.07262,12.45518 12.63144,18.28872 3.55304,4.55962 7.4045,8.95486 10.25388,14.00546 0.90009,1.55136 1.55028,3.282 1.44915,5.10113 -0.0635,0.53898 0.16905,1.33511 0.86694,1.00435 0.68111,-0.46054 0.88425,-1.37957 1.25733,-2.08081 0.59824,-2.31797 -0.72979,-4.54565 -1.82471,-6.49195 -4.45405,-7.28043 -9.71548,-14.0211 -14.50022,-21.08089 -3.94113,-5.73336 -7.84329,-11.83708 -9.02908,-18.8112 -1.29003,-8.17694 0.24271,-16.43699 0.0391,-24.65318 -7.1e-4,-1.80702 -0.51881,-3.68183 -1.90338,-4.92494 -1.70331,-1.64651 -3.30033,-3.44471 -5.23169,-4.82886 -1.47489,-0.48367 -2.99529,-1.10768 -4.5603,-1.17065 z"
       id="path7"
       transform="matrix(7.5,0,0,-7.5,0,5120)"
       sodipodi:nodetypes="scccccccccccccccccccccccsssccccccccccccccccccccccccccccccccccccccccccccccccss" />
    <path
       style="fill:url(#linearGradient46);fill-opacity:1;fill-rule:nonzero;stroke:none;stroke-width:0.471405;stroke-linecap:round;stroke-linejoin:round;stroke-opacity:1;paint-order:stroke markers fill"
       d="m 250.01283,208.02301 c -1.8172,0.0475 -3.68285,0.11268 -5.42328,0.67189 -0.29494,0.22928 -0.23053,0.83664 0.21216,0.85074 3.33246,0.86072 6.77014,1.21652 10.17293,1.68808 11.51478,1.41314 23.07524,2.46745 34.6568,3.1441 3.87649,0.2362 7.76138,0.33729 11.64338,0.18038 0.85566,-0.0529 1.74208,0.009 2.57773,-0.12254 0.034,-0.11054 5.4514,0.0281 5.44387,-0.0542 -0.0346,-0.37802 -5.86931,-0.70822 -6.28872,-0.65895 -12.25841,-0.94993 -24.46967,-2.43327 -36.62975,-4.23987 -5.32864,-0.70934 -10.68283,-1.34211 -16.06163,-1.46088 -0.10117,-4.6e-4 -0.20233,9.7e-4 -0.30349,0.001 z"
       id="path19"
       transform="matrix(7.5,0,0,-7.5,0,5120)"
       sodipodi:nodetypes="cccccccsccccc" />
    <path
       style="fill:url(#linearGradient44);fill-opacity:1;fill-rule:nonzero;stroke:none;stroke-width:0.471405;stroke-linecap:round;stroke-linejoin:round;stroke-opacity:1;paint-order:stroke markers fill"
       d="m 326.38157,172.04964 c -1.14529,0.25953 -2.14778,0.94877 -3.20961,1.4307 -7.56503,3.94427 -15.03709,8.06897 -22.41595,12.35119 -2.92253,1.6938 -5.63302,3.73177 -8.64564,5.26995 -7.18533,3.82402 -14.67216,7.06861 -22.30402,9.89075 -4.21206,1.59112 -8.56214,2.74557 -12.91577,3.87452 -0.70051,0.23292 -1.48017,0.30505 -2.14155,0.62079 -0.0354,0.0596 -1.88032,0.49565 -1.86654,0.51658 0.0952,0.14459 1.34606,0.17819 1.58429,0.11211 9.2706,0.60732 19.16513,1.35139 28.36517,2.67279 5.12188,0.73045 10.25472,1.51425 15.43884,1.60477 8.8162,0.21997 17.70158,-0.6064 26.23173,-2.89867 3.68008,-1.07105 7.32332,-2.32765 10.78625,-3.97888 0.38367,-0.22151 1.06603,-0.40577 0.9279,-0.99126 -0.0474,-0.42598 -0.66309,-0.0791 -0.96171,-0.11316 -4.68416,0.74181 -9.18859,2.47623 -13.93582,2.78302 -1.8835,0.16551 -3.62653,-0.6671 -5.32804,-1.36699 -4.40281,-2.00916 -8.5548,-4.60098 -12.24907,-7.72397 -1.66056,-1.46763 -3.42285,-2.94611 -4.94591,-4.49244 7.48421,-3.687 15.10071,-7.12376 22.42807,-11.1233 1.23993,-0.73948 2.56119,-1.39436 3.66772,-2.32675 0.24483,-0.26208 0.0551,-0.80548 -0.34699,-0.62839 -3.17396,0.92319 -6.16155,2.37754 -9.19058,3.68127 -3.8418,1.69814 -7.65227,3.52785 -11.62021,4.89465 -0.13612,0.0332 -0.69877,0.23016 -0.37565,0.007 2.93736,-2.02651 6.14237,-3.68245 9.26707,-5.41787 4.49945,-2.46081 9.12355,-4.71672 13.43976,-7.49675 0.35208,-0.19761 0.91916,-0.60353 0.57676,-1.05644 -0.0654,-0.0719 -0.16598,-0.0989 -0.2605,-0.0955 z"
       id="path20"
       transform="matrix(7.5,0,0,-7.5,0,5120)"
       sodipodi:nodetypes="cccccccscccccccccccccccccccccc" />
  </g>
  <path
     style="opacity:1;fill:#f9f9f9;stroke:none;stroke-width:1.69706;stroke-linecap:round;stroke-linejoin:round;paint-order:stroke markers fill"
     d="m 406.62087,223.54159 c -2.6955,-0.3367 -4.68798,-1.53872 -6.54888,-3.95079 -4.48704,-5.81604 -12.01599,-11.37968 -21.85827,-16.15254 -2.77097,-1.34374 -7.3053,-3.54119 -10.07627,-4.88321 -8.28602,-4.01305 -13.33183,-7.66563 -18.98669,-13.74418 -6.1227,-6.58144 -13.78612,-17.16589 -16.31223,-22.52987 -2.29797,-4.87956 -2.84641,-7.39435 -3.04562,-13.96536 -0.38712,-12.76889 2.43746,-23.6822 8.45411,-32.66407 2.00032,-2.98614 8.0493,-8.9005 11.23266,-10.98267 16.07365,-10.513422 44.99266,-13.577486 71.40347,-7.565427 10.96099,2.495119 21.58983,6.800087 45.30576,18.350037 19.36664,9.4318 24.0538,11.31795 35.6801,14.35796 l 5.83363,1.52535 -9.72271,-0.15903 c -13.41956,-0.21951 -21.68033,-1.18382 -37.74622,-4.40624 -4.81033,-0.96483 -10.41659,-1.9441 -12.45836,-2.17615 -4.02668,-0.45763 -12.33611,-0.27822 -24.39519,0.52672 l -6.89429,0.4602 -4.02906,-3.74775 c -8.8343,-8.21746 -12.29959,-10.96129 -15.2396,-12.06674 -0.83275,-0.31312 -4.07021,-0.53314 -9.89949,-0.67278 -8.28755,-0.19853 -8.73579,-0.24501 -10.36741,-1.07519 -1.57595,-0.80185 -1.77717,-0.82758 -2.65165,-0.33907 -1.26602,0.70724 -2.73471,3.48637 -3.44402,6.51695 -0.34155,1.45928 -0.68917,5.15895 -0.8471,9.01561 -0.30154,7.36338 -0.45643,7.9553 -3.26023,12.45889 -0.9369,1.5049 -1.70345,2.79578 -1.70345,2.86864 0,0.0729 1.47166,0.21491 3.27037,0.31566 3.59969,0.20163 6.71788,1.1114 13.61471,3.97226 2.18921,0.9081 5.25187,1.91401 6.8059,2.23535 2.62865,0.54355 3.0229,0.54344 5.65838,-0.002 4.66358,-0.96432 10.4894,-3.99938 16.69992,-8.70011 3.86522,-2.92558 6.69819,-3.7048 18.47421,-5.08141 5.09539,-0.59565 8.68114,-0.78442 14.84924,-0.78172 8.87248,0.004 12.17524,0.3791 24.57196,2.79162 12.66064,2.46389 19.32795,3.15174 30.40559,3.13688 10.20153,-0.0137 11.38954,-0.24354 18.64732,-3.60771 5.1987,-2.40973 7.80345,-3.42645 8.07712,-3.15278 0.23619,0.23619 -4.65393,3.01189 -10.10743,5.73713 -2.23623,1.11749 -4.12463,2.08564 -4.19646,2.15143 -0.0718,0.0658 1.36007,1.73087 3.18198,3.70016 1.82192,1.96928 3.86942,4.37971 4.55001,5.35651 l 1.23744,1.776 -0.008,5.88552 c -0.008,6.27342 -0.42334,9.05324 -2.15576,14.43975 -1.13116,3.51705 -4.53813,10.62805 -6.69165,13.96678 -7.07005,10.96107 -17.95252,20.98177 -28.62143,26.35493 -8.0447,4.05153 -14.92606,5.85549 -28.07255,7.35927 -9.54362,1.09166 -16.30115,2.19819 -26.905,4.40565 -13.18389,2.74455 -17.40964,3.27812 -21.70904,2.74106 z"
     id="path9"
     transform="scale(0.75)" />
  <path
     style="opacity:1;fill:#f9f9f9;stroke:none;stroke-width:1.69706;stroke-linecap:round;stroke-linejoin:round;paint-order:stroke markers fill"
     d="m 142.87934,548.27289 c 12.36189,-12.22221 16.30747,-16.6352 15.38372,-17.20611 -0.73151,-0.45209 -5.93952,3.73288 -18.36364,14.75638 -4.14278,3.67576 -7.62343,6.59208 -7.73478,6.48074 -0.2158,-0.2158 10.00883,-10.27402 17.91877,-17.62713 15.62621,-14.52621 31.41361,-27.59543 37.27083,-30.85378 1.1827,-0.65794 3.90046,-1.93833 6.03946,-2.84533 2.13899,-0.90699 8.7921,-4.02082 14.78468,-6.9196 5.99259,-2.89879 11.00421,-5.27052 11.13694,-5.27052 0.13273,0 2.23006,1.43303 4.66074,3.18452 4.78122,3.44523 10.33855,6.38542 15.37957,8.1368 3.95279,1.37331 20.4291,6.37442 20.5622,6.24132 0.0537,-0.0537 -0.93614,-1.33611 -2.19964,-2.8498 -3.83258,-4.59149 -5.7512,-9.18558 -6.52357,-15.62054 -1.29489,-10.78837 2.66389,-24.63663 10.01825,-35.04497 2.8314,-4.00718 9.60767,-10.83113 12.90242,-12.99321 3.28836,-2.1579 6.82518,-3.64487 12.6165,-5.30434 7.99281,-2.2903 11.35122,-3.99899 22.98096,-11.69225 16.00807,-10.58959 26.54912,-16.03496 47.94063,-24.76551 9.932,-4.05356 20.13831,-8.83211 24.53782,-11.48852 11.45823,-6.91841 36.69323,-26.37582 40.9584,-31.58091 0.73621,-0.89844 1.26319,-1.63353 1.17108,-1.63353 -0.0921,0 -1.22719,0.47545 -2.52237,1.05656 -3.37062,1.5123 -7.34741,2.65173 -13.62094,3.90271 -10.73653,2.14093 -11.84683,2.61459 -21.32231,9.0963 -23.69854,16.21101 -30.0949,19.53977 -38.60499,20.09061 l -2.82842,0.18307 1.24573,-0.69175 c 0.68515,-0.38046 2.80304,-1.19802 4.70642,-1.81678 6.02919,-1.96002 14.75884,-6.80256 28.34252,-15.72224 30.08916,-19.75795 40.3168,-31.43572 42.94494,-49.03388 0.62137,-4.16072 0.85708,-14.90652 0.41519,-18.92817 -0.59463,-5.41183 -3.02038,-11.32674 -7.22188,-17.60967 -2.1526,-3.21902 -8.3214,-9.11717 -14.04116,-13.42513 -7.35049,-5.53617 -10.74999,-8.49509 -13.08074,-11.38543 -3.48254,-4.31867 -4.90968,-8.46738 -4.48333,-13.03307 0.56234,-6.02198 4.49747,-12.5313 7.57872,-12.53641 1.84082,-0.003 19.56003,4.83355 37.73929,10.30122 52.78483,15.8758 70.4431,25.39638 83.7143,45.13519 7.40666,11.01624 10.38114,20.32468 11.72672,36.69831 0.52892,6.43588 0.9814,8.68898 1.61726,8.0531 1.1096,-1.10957 1.7742,-13.96151 1.07654,-20.8164 -1.49005,-14.63954 -6.52564,-27.74299 -17.09897,-44.49414 -2.79152,-4.42259 -3.43248,-5.6693 -3.04187,-5.91661 0.27216,-0.17233 6.30198,-0.3201 13.39957,-0.32838 13.24432,-0.0154 23.19455,-0.42148 23.74192,-0.96886 0.45198,-0.45198 -1.43642,-4.01669 -4.27178,-8.06385 -7.37268,-10.5237 -10.97383,-16.19423 -10.55219,-16.61589 0.26047,-0.26047 6.28859,3.64996 8.38689,5.4406 4.59595,3.92201 10.43951,10.44761 13.75355,15.35876 5.7341,8.49757 10.28483,21.50585 12.14926,34.72872 0.73942,5.24422 0.54606,17.78201 -0.36537,23.68807 -3.41101,22.10404 -14.11303,43.53566 -32.3968,64.87705 -20.56609,24.0054 -48.59863,47.90668 -74.3291,63.37495 -8.14454,4.89621 -28.7314,15.03072 -42.86251,21.10038 -4.98999,2.14332 -5.91065,2.4447 -5.51562,1.80552 0.11548,-0.18685 7.40365,-5.62483 16.19593,-12.0844 24.22361,-17.79677 35.42974,-26.46591 46.3316,-35.84245 7.54506,-6.48939 13.15381,-12.54461 11.61967,-12.54461 -0.60432,0 -3.84896,2.33865 -15.44879,11.1351 -15.05117,11.41367 -31.37909,23.62305 -36.23922,27.09828 -15.93204,11.39214 -30.7149,20.76742 -44.37095,28.14 -4.73761,2.55772 -18.76506,9.6406 -19.09295,9.6406 -0.29324,0 1.48048,-2.68949 4.51291,-6.84292 4.60786,-6.31124 6.05133,-9.06698 4.74934,-9.06698 -0.78465,0 -5.0769,3.76314 -12.10674,10.61434 -3.70547,3.61131 -7.23955,6.77409 -7.8535,7.0284 -1.00026,0.41432 -1.21335,0.38602 -2.05025,-0.27228 -0.88512,-0.69624 -0.99217,-0.7048 -2.04728,-0.16354 -2.91328,1.49449 -10.15012,9.91545 -15.59778,18.14995 l -3.29992,4.98805 -0.61383,-1.87608 c -0.3376,-1.03184 -0.91073,-2.46737 -1.27362,-3.19007 -0.69219,-1.37853 -1.95179,-2.31917 -2.42688,-1.81235 -0.1536,0.16386 -0.53788,1.96846 -0.85396,4.01023 -0.53979,3.48686 -3.66699,18.05414 -3.93679,18.33855 -0.0681,0.0718 -0.56891,-0.62063 -1.11288,-1.53875 -3.43141,-5.79157 -5.19543,-8.31452 -5.81343,-8.31452 -0.16247,0 -0.19573,1.63077 -0.0739,3.62393 0.20885,3.41735 0.16019,3.80166 -0.85363,6.74216 -1.92929,5.59578 -6.6051,12.15742 -10.10772,14.18437 -3.67148,2.12467 -5.05687,1.10458 -8.5577,-6.30119 -2.57409,-5.44532 -3.16228,-8.26336 -3.14487,-15.06729 0.0131,-5.12774 0.10936,-6.08631 0.79549,-7.92191 0.81661,-2.18469 1.00693,-3.74535 0.45673,-3.74535 -0.5419,0 -2.46317,2.65252 -3.39409,4.68592 -1.17309,2.56238 -2.1534,6.50751 -2.69462,10.84416 -0.24448,1.95899 -0.53719,3.56181 -0.65046,3.56181 -0.24616,0 -2.23648,-7.22085 -3.02101,-10.96016 -0.73425,-3.49965 -1.57427,-11.48224 -1.5812,-15.02602 -0.003,-1.55563 0.18342,-4.85438 0.41437,-7.33056 0.23094,-2.47617 0.30365,-4.61838 0.16157,-4.76046 -0.42219,-0.42219 -1.40805,0.39749 -2.25141,1.87187 -1.89115,3.30618 -3.7126,10.72131 -4.36657,17.77633 -0.30799,3.32264 -0.27704,4.98814 0.16155,8.69312 0.2984,2.52067 0.5022,4.62338 0.4529,4.67268 -0.0493,0.0493 -3.18418,0.35157 -6.96638,0.6717 -8.0945,0.68512 -19.26544,0.518 -25.08472,-0.37528 -2.04177,-0.31342 -5.86015,-1.13253 -8.48528,-1.82025 -5.10377,-1.33706 -10.35464,-1.90584 -15.40338,-1.6685 -7.41299,0.34848 -16.02899,0.87264 -17.30031,1.05248 l -1.41421,0.20005 2.65165,-2.40702 c 7.55778,-6.86056 6.76698,-7.37707 -2.47488,-1.61647 -5.40106,3.36657 -19.88171,13.08307 -31.46625,21.11382 -12.45846,8.63657 -17.79081,12.20207 -24.48218,16.37013 -5.03699,3.13754 -16.097,9.25143 -16.73581,9.25143 -0.17191,0 4.47472,-4.7332 10.32585,-10.51822 z m 164.63865,-80.96372 c 3.10172,-4.36142 4.83198,-6.46307 9.21066,-11.18772 1.71974,-1.85562 3.06673,-3.55407 2.99331,-3.77433 -0.23366,-0.70099 -6.48334,3.80453 -8.90401,6.41907 -3.7621,4.06342 -6.93883,9.3926 -6.93883,11.64037 0,1.45482 1.01724,0.58896 3.63887,-3.09739 z m 74.64703,-50.69958 c 5.44017,-3.32914 17.17351,-13.34808 17.17351,-14.66422 0,-0.91859 -1.31335,-0.48111 -4.45385,1.48358 -4.69186,2.93522 -9.41214,6.62501 -13.48168,10.53848 -3.91082,3.76084 -4.74373,5.29087 -2.33157,4.283 0.7148,-0.29866 2.10692,-1.03704 3.09359,-1.64084 z m 43.56071,-75.25381 c 2.59066,-4.41329 4.42971,-9.89949 3.31844,-9.89949 -0.19052,0 -0.83414,0.83527 -1.43026,1.85615 -1.76576,3.02393 -6.35626,12.64112 -6.34057,13.2836 0.0225,0.91988 2.65527,-2.1788 4.45239,-5.24026 z"
     id="path10"
     transform="scale(0.75)" />
  <path
     style="opacity:1;fill:#f9f9f9;stroke:none;stroke-width:1.69706;stroke-linecap:round;stroke-linejoin:round;paint-order:stroke markers fill"
     d="m 236.17365,390.27843 c -0.38891,-0.0766 -1.58215,-0.31329 -2.65165,-0.52601 -2.88216,-0.57327 -5.76296,-2.24561 -7.62715,-4.42766 -1.94751,-2.27958 -2.49384,-2.35232 -6.28034,-0.83613 -4.81655,1.92864 -8.36637,2.52191 -8.36637,1.39824 0,-0.52417 2.44833,-1.61175 5.48008,-2.43433 9.12647,-2.47621 18.65244,-9.53616 39.4212,-29.21608 4.56968,-4.3301 9.34265,-8.74489 10.6066,-9.81063 4.21297,-3.5523 9.18359,-6.55276 19.21957,-11.60168 21.78086,-10.95757 22.77624,-11.61056 38.92152,-25.53352 12.23437,-10.55037 17.62334,-14.64472 25.12073,-19.08589 11.91363,-7.05717 25.8049,-11.19567 37.57932,-11.19567 9.76364,0 15.84452,2.77536 17.04499,7.77948 1.01091,4.21395 -2.37917,10.91832 -8.45507,16.7211 -6.53924,6.24529 -15.1576,10.29518 -23.54182,11.06263 l -2.47488,0.22654 1.17087,-1.10109 c 0.99724,-0.93781 1.44288,-1.102 3.0052,-1.10723 5.90275,-0.0198 14.66789,-3.77423 20.68967,-8.86224 2.4506,-2.0706 5.57106,-5.53717 5.26228,-5.84595 -0.32835,-0.32836 -10.99449,0.94156 -15.43715,1.83796 -2.42057,0.48839 -5.60255,1.36995 -7.07107,1.95901 -1.46853,0.58906 -4.29327,1.45533 -6.2772,1.92505 -4.36667,1.03385 -7.03124,2.01431 -11.29217,4.15509 -8.98855,4.51603 -18.43255,11.21345 -25.58254,18.14244 -1.84732,1.79021 -3.66093,3.77 -4.03025,4.39952 l -0.67149,1.14458 1.77808,-0.21059 c 5.07833,-0.60145 16.62653,-6.15526 26.79963,-12.88858 7.79814,-5.1614 11.88159,-7.66225 13.08791,-8.0155 0.64614,-0.18922 0.70952,-0.0826 0.58496,0.98439 -0.13037,1.11667 -0.23978,1.20789 -1.63787,1.36547 -1.87136,0.21093 -4.70626,1.86014 -12.2229,7.11071 -12.0384,8.40913 -19.22864,11.35584 -34.14127,13.9918 -3.31858,0.58659 -7.85291,1.55133 -10.07628,2.14386 -2.22336,0.59254 -5.47437,1.45292 -7.22446,1.91195 -4.33913,1.13813 -10.60398,1.8598 -21.91682,2.52468 -7.88217,0.46325 -9.66506,0.66465 -10.24714,1.15751 -0.38757,0.32818 -5.24166,4.98521 -10.78686,10.34896 -17.86847,17.28378 -24.25078,22.96145 -31.56056,28.0761 -2.19407,1.5352 -3.44714,2.64369 -3.44714,3.04943 0,1.08573 2.46793,1.55315 7.95495,1.50665 4.07058,-0.0345 5.54633,-0.19996 8.3085,-0.93155 10.28339,-2.72368 14.57288,-5.69795 31.36062,-21.74498 11.1822,-10.68881 13.36613,-12.44271 10.84406,-8.70872 -3.10041,4.59023 -14.7645,16.6268 -20.8147,21.47941 -9.43012,7.5635 -18.94231,12.59944 -23.79858,12.59944 -1.52219,0 -2.18759,0.33034 -2.18759,1.08605 0,1.23956 1.25288,1.4947 6.34038,1.29117 12.07728,-0.48316 25.84518,-4.827 34.73534,-10.95918 2.13374,-1.47179 2.55608,-2.0723 2.21448,-3.1486 -0.25545,-0.80484 1.17199,-2.2717 5.34999,-5.49774 3.43998,-2.65618 8.54355,-7.86407 15.1654,-15.47539 6.94954,-7.98796 10.86647,-12.24314 11.07654,-12.03307 0.26868,0.26868 -2.63002,4.48433 -5.84865,8.50583 -4.51175,5.63719 -8.6697,10.18346 -14.83165,16.21686 -3.15605,3.09021 -6.17567,6.24973 -6.71028,7.02116 -0.94243,1.35994 -0.95154,1.41756 -0.29935,1.89445 1.84719,1.3507 9.12682,0.29829 13.54798,-1.95863 7.8588,-4.01176 19.70241,-14.55975 28.37363,-25.26973 5.24073,-6.47291 5.19621,-6.42279 5.46677,-6.1547 0.28861,0.28598 -2.91172,5.28116 -5.89117,9.19513 -6.39683,8.40322 -21.73882,21.53356 -29.98161,25.65956 l -2.6337,1.31833 -5.14447,0.0247 c -6.02365,0.0289 -6.4321,0.15073 -13.62975,4.06462 -13.38824,7.28017 -21.8049,9.56871 -34.87038,9.48147 -3.378,-0.0226 -6.46001,-0.10367 -6.84892,-0.18026 z"
     id="path11"
     transform="scale(0.75)" />
  <path
     style="opacity:1;fill:#f9f9f9;stroke:none;stroke-width:1.2;stroke-linecap:round;stroke-linejoin:round;paint-order:stroke markers fill"
     d="m 382.12498,347.77835 c 0,-0.25426 3.80046,-3.14083 7.625,-5.79143 14.32929,-9.93091 20.41081,-15.88305 26.02491,-25.47126 0.80004,-1.36637 1.71868,-2.77262 2.04143,-3.12499 l 0.58682,-0.64069 -0.16429,0.625 c -0.3385,1.28769 -3.22036,6.46384 -4.94124,8.875 -2.57345,3.60572 -6.32553,8.00516 -8.80848,10.32823 -3.62124,3.38806 -11.38268,9.23661 -16.25137,12.24605 -3.12004,1.92856 -6.11278,3.37485 -6.11278,2.95409 z"
     id="path12"
     transform="scale(0.75)" />
  <path
     style="opacity:1;fill:#f9f9f9;stroke:none;stroke-width:0.424264;stroke-linecap:round;stroke-linejoin:round;paint-order:stroke markers fill"
     d="m 354.17209,351.15487 c 0.40485,-0.35958 1.68825,-1.13781 3.40846,-2.06685 2.31306,-1.24921 3.90996,-2.27349 6.02791,-3.86639 3.6023,-2.70926 5.86263,-4.81419 9.51289,-8.85881 3.34054,-3.70145 5.21552,-5.60834 5.36626,-5.4576 0.15583,0.15583 -2.21984,3.87308 -3.62224,5.66775 -2.00584,2.56691 -5.15394,5.87125 -7.39083,7.75764 -4.39703,3.70804 -8.47997,6.03628 -12.1534,6.9303 -0.48614,0.11831 -1.02309,0.2135 -1.19324,0.21154 l -0.30936,-0.004 z"
     id="path13"
     transform="scale(0.75)" />
  <path
     style="opacity:1;fill:#f9f9f9;stroke:none;stroke-width:0.424264;stroke-linecap:round;stroke-linejoin:round;paint-order:stroke markers fill"
     d="m 320.48664,366.37682 c -0.12209,-0.31815 0.34055,-0.72352 2.17501,-1.90579 8.51615,-5.48848 17.26131,-13.09687 23.21626,-20.19843 0.48917,-0.58337 1.95425,-2.47267 3.25574,-4.19845 3.34194,-4.43146 4.99837,-6.47311 5.13959,-6.33488 0.17019,0.16659 -1.92115,3.83861 -3.80928,6.68843 -5.2024,7.85213 -12.43381,15.4431 -19.24886,20.20595 -3.48031,2.43229 -8.11549,5.16103 -9.68271,5.70024 -0.58079,0.19982 -0.97927,0.21618 -1.04575,0.0429 z"
     id="path14"
     transform="scale(0.75)" />
  <path
     style="opacity:1;fill:#f9f9f9;stroke:none;stroke-width:0.424264;stroke-linecap:round;stroke-linejoin:round;paint-order:stroke markers fill"
     d="m 315.03006,390.4936 c -4.5602,-0.70932 -9.49568,-3.90085 -12.20473,-7.8922 -0.6073,-0.89475 -1.59165,-2.83912 -2.02675,-4.0034 -1.13763,-3.04415 0.18711,-2.50372 3.02721,1.23496 1.29925,1.71031 2.53466,3.03005 3.75807,4.01461 3.04275,2.44869 6.23868,3.82198 9.6244,4.1356 1.17158,0.10852 2.2537,0.0196 3.4094,-0.2803 5.56795,-1.44464 13.98095,-6.84648 26.10284,-16.76017 3.08703,-2.52467 5.07085,-4.09251 7.18643,-5.67953 3.39999,-2.55052 5.87782,-4.0831 5.87782,-3.63552 0,0.36979 -2.15961,2.53397 -5.39847,5.40987 -14.26707,12.66829 -23.36484,19.25257 -30.443,22.03235 -3.33302,1.30896 -6.45011,1.80686 -8.91322,1.42373 z"
     id="path15"
     transform="scale(0.75)" />
  <path
     style="opacity:1;fill:#f9f9f9;stroke:none;stroke-width:0.424264;stroke-linecap:round;stroke-linejoin:round;paint-order:stroke markers fill"
     d="m 290.66507,406.56126 c 0,-0.0381 0.20881,-0.27147 0.46404,-0.51855 2.1244,-2.05668 19.15365,-14.11858 19.47675,-13.79549 0.13744,0.13745 -2.95032,3.17655 -4.60542,4.53284 -3.24697,2.66076 -10.72954,7.61264 -14.16397,9.37355 -0.89633,0.45957 -1.1714,0.5553 -1.1714,0.40765 z"
     id="path16"
     transform="scale(0.75)" />
  <path
     style="opacity:1;fill:#f9f9f9;stroke:none;stroke-width:0.424264;stroke-linecap:round;stroke-linejoin:round;paint-order:stroke markers fill"
     d="m 161.12169,466.21796 c -0.2001,-0.0942 -0.46366,-0.30478 -0.58568,-0.46806 -0.39363,-0.52672 -0.46565,-0.89702 -0.45315,-2.32982 0.0171,-1.95715 0.39264,-3.21013 1.23077,-4.10616 1.05668,-1.12967 2.4242,-1.26183 4.48008,-0.43294 1.53326,0.61817 2.93783,0.74828 5.07853,0.47044 6.12414,-0.79485 17.82903,-5.63248 37.3265,-15.42704 21.70568,-10.90384 37.05545,-19.99536 67.21934,-39.81335 12.95738,-8.51313 21.22216,-13.68081 24.50512,-15.32218 1.43383,-0.71687 1.59802,-0.75123 1.03268,-0.21614 -2.39075,2.2629 -16.10363,11.77068 -33.18339,23.00758 -30.90998,20.33591 -53.05558,33.12122 -74.59919,43.06833 -8.66052,3.99873 -20.02345,8.67743 -25.589,10.53631 -2.52932,0.84478 -3.71692,1.12209 -4.99394,1.16611 -0.95939,0.0331 -1.15276,0.0155 -1.46867,-0.13308 z"
     id="path17"
     transform="scale(0.75)" />
  <path
     style="opacity:1;fill:#f9f9f9;stroke:none;stroke-width:0.424264;stroke-linecap:round;stroke-linejoin:round;paint-order:stroke markers fill"
     d="m 176.99766,443.13328 c -1.93061,-0.1173 -2.66561,-0.50157 -3.05155,-1.59538 -0.16112,-0.45663 -0.57237,-2.88123 -0.57237,-3.3745 0,-0.69253 0.36279,-0.52178 1.87736,0.88359 1.38291,1.28321 2.15492,1.6131 3.77506,1.6131 2.13498,0 5.85946,-1.07904 12.39332,-3.59051 8.67253,-3.33354 26.4798,-12.70975 43.24747,-22.77147 11.4411,-6.86541 19.78926,-12.46418 23.5596,-15.80046 0.79871,-0.70676 1.259,-1.02466 2.07712,-1.43452 1.57818,-0.79065 3.45348,-1.30499 5.55543,-1.52371 2.15158,-0.22388 3.87525,-0.67729 6.93355,-1.82387 7.46088,-2.79715 15.57309,-6.98792 20.19567,-10.4331 1.59547,-1.18909 3.0581,-1.93086 3.55927,-1.80508 0.35354,0.0887 0.28211,0.46799 -0.23324,1.23851 -0.9835,1.47046 -2.48784,2.67745 -5.87025,4.70994 -2.55863,1.53747 -4.9908,2.85728 -8.44109,4.5805 -6.44453,3.21867 -11.367,5.27012 -14.52599,6.05374 -1.33437,0.331 -2.26063,0.70241 -4.32761,1.73526 -4.67619,2.33665 -11.02843,6.16208 -18.44628,11.10868 -18.26929,12.18288 -38.31072,23.22136 -52.4542,28.89089 -4.7537,1.90556 -8.95168,3.1605 -11.01973,3.29423 -1.30396,0.0843 -3.23837,0.1045 -4.23154,0.0442 z"
     id="path18"
     transform="scale(0.75)" />
  <path
     style="opacity:1;fill:#f9f9f9;stroke:none;stroke-width:0.424264;stroke-linecap:round;stroke-linejoin:round;paint-order:stroke markers fill"
     d="m 164.62329,483.43363 c 0.17625,-0.12243 0.98704,-0.50263 3.84489,-1.80294 1.31257,-0.59722 6.04577,-2.76536 10.51822,-4.8181 4.47245,-2.05273 10.47843,-4.79723 13.34664,-6.09889 5.87143,-2.6646 9.46432,-4.32252 14.80504,-6.83175 17.09906,-8.03361 27.31918,-13.0733 38.05118,-18.76359 9.03937,-4.79282 11.96897,-6.26315 12.13948,-6.09265 0.10108,0.10108 -1.47047,1.51584 -2.46401,2.21818 -11.5002,8.1296 -62.29041,32.91932 -82.2423,40.14087 -2.83629,1.02659 -4.18965,1.42022 -6.47273,1.88264 -1.39673,0.28289 -1.74969,0.32133 -1.52641,0.16623 z"
     id="path21"
     transform="scale(0.75)" />
  <path
     style="opacity:1;fill:#f9f9f9;stroke:none;stroke-width:0.424264;stroke-linecap:round;stroke-linejoin:round;paint-order:stroke markers fill"
     d="m 125.62193,501.06268 c -0.44114,-0.13209 -0.0415,-0.34458 2.14342,-1.13973 8.22711,-2.994 39.49271,-13.29357 53.79603,-17.72157 6.39969,-1.98121 7.54992,-2.26493 7.69105,-1.89715 0.0421,0.10976 -0.009,0.2183 -0.16552,0.35315 -1.02193,0.87902 -19.34593,7.4758 -38.42898,13.83472 -13.13934,4.37834 -18.15946,5.91014 -20.85965,6.36494 -1.06095,0.17871 -3.81363,0.31424 -4.17635,0.20564 z"
     id="path22"
     transform="scale(0.75)" />
  <path
     style="opacity:1;fill:#f9f9f9;stroke:none;stroke-width:0.424264;stroke-linecap:round;stroke-linejoin:round;paint-order:stroke markers fill"
     d="m 122.1085,507.83262 c -1.25541,-0.17337 -1.94455,-0.45231 -1.94455,-0.78709 0,-0.5267 1.87169,-1.26569 4.37523,-1.72746 0.63197,-0.11656 2.09917,-0.33408 3.26044,-0.48337 2.62316,-0.33724 5.11574,-0.75215 8.31843,-1.38468 14.84857,-2.9326 36.79678,-8.92456 48.32034,-13.19166 8.19143,-3.03323 19.34232,-8.12062 28.84603,-13.16047 13.33305,-7.07056 16.80057,-8.86064 17.16375,-8.86064 0.31916,0 0.2465,0.29207 -0.16518,0.664 -2.13993,1.93329 -18.45419,11.12892 -29.95081,16.88193 -18.70571,9.36052 -52.76935,19.85159 -71.19681,21.92752 -1.4326,0.16139 -6.14855,0.24321 -7.02687,0.12192 z"
     id="path23"
     transform="scale(0.75)" />
  <path
     style="opacity:1;fill:#f9f9f9;stroke:none;stroke-width:0.424264;stroke-linecap:round;stroke-linejoin:round;paint-order:stroke markers fill"
     d="m 113.67581,533.81005 c 0.84924,-0.94884 11.75843,-8.92849 20.38003,-14.90721 4.29391,-2.97764 8.14532,-5.49915 8.39953,-5.49915 0.31291,0 -0.69279,1.08331 -2.00629,2.16113 -4.72744,3.87918 -25.9509,18.43336 -26.88024,18.43336 -0.0338,0 0.0144,-0.0847 0.10697,-0.18813 z"
     id="path24"
     transform="scale(0.75)" />
  <path
     style="opacity:1;fill:#f9f9f9;stroke:none;stroke-width:0.424264;stroke-linecap:round;stroke-linejoin:round;paint-order:stroke markers fill"
     d="m 297.02903,282.24088 c 0,-0.2931 1.05813,-1.81464 2.28607,-3.28727 0.9497,-1.13894 5.26295,-5.42495 7.08309,-7.03837 3.82507,-3.39063 8.09354,-6.76935 12.10585,-9.58241 0.75167,-0.527 2.9194,-1.97762 4.81717,-3.22359 6.28839,-4.12861 7.18978,-4.62622 7.27697,-4.01723 0.0188,0.13162 -0.17129,0.34843 -0.70711,0.80631 -1.47641,1.26165 -4.20359,3.36068 -7.84814,6.04048 -5.85832,4.30756 -11.57808,9.01739 -18.03122,14.8475 -3.25027,2.93646 -5.73048,4.97935 -6.55932,5.40274 -0.38915,0.1988 -0.42336,0.20299 -0.42336,0.0518 z"
     id="path25"
     transform="scale(0.75)" />
  <path
     style="opacity:1;fill:#f9f9f9;stroke:none;stroke-width:0.424264;stroke-linecap:round;stroke-linejoin:round;paint-order:stroke markers fill"
     d="m 272.63385,315.66131 c 0,-0.0825 3.80927,-5.72442 4.30561,-6.37701 3.93754,-5.17717 13.4698,-14.06455 16.74896,-15.61585 0.59743,-0.28263 0.77735,-0.32069 0.77735,-0.16447 0,0.17155 -3.04783,3.14628 -5.39169,5.26239 -5.22007,4.71282 -8.82956,8.38742 -14.22531,14.48192 -2.02891,2.29166 -2.21492,2.4943 -2.21492,2.41302 z"
     id="path26"
     transform="scale(0.75)" />
  <path
     style="opacity:1;fill:#f9f9f9;stroke:none;stroke-width:0.424264;stroke-linecap:round;stroke-linejoin:round;paint-order:stroke markers fill"
     d="m 216.81841,370.39427 c -0.24224,-0.39195 1.76625,-2.36124 5.21311,-5.11138 1.99499,-1.59173 2.73077,-2.21468 5.04408,-4.27058 5.00612,-4.44906 9.38826,-8.64666 17.6898,-16.94483 6.54903,-6.54637 9.45187,-9.35789 9.55517,-9.25459 0.1395,0.1395 -2.69681,3.94605 -4.52661,6.07508 -5.64348,6.56636 -19.82249,20.2827 -26.525,25.65947 -1.94939,1.5638 -5.30272,3.67434 -6.15967,3.8768 -0.13071,0.0309 -0.26161,0.0174 -0.29088,-0.03 z"
     id="path27"
     transform="scale(0.75)" />
  <path
     style="opacity:1;fill:#f9f9f9;stroke:none;stroke-width:0.848528;stroke-linecap:round;stroke-linejoin:round;paint-order:stroke markers fill"
     d="m 445.56564,88.802217 c -1.11811,-0.08501 -4.26032,-0.415127 -6.98268,-0.733597 l -4.94975,-0.579038 6.54074,-0.314328 c 12.31544,-0.591842 16.88954,-0.924552 21.30159,-1.549433 4.57482,-0.647934 5.93581,-1.072697 12.28598,-3.834422 2.93732,-1.277459 4.0378,-1.605904 4.47099,-1.334396 0.53061,0.332569 0.45144,0.880049 -0.23755,1.642673 -0.81589,0.903092 -4.04568,2.515924 -7.10093,3.545923 -8.07405,2.721967 -16.77784,3.8067 -25.32839,3.156618 z"
     id="path28"
     transform="scale(0.75)" />
  <path
     style="opacity:1;fill:#f9f9f9;stroke:none;stroke-width:0.848528;stroke-linecap:round;stroke-linejoin:round;paint-order:stroke markers fill"
     d="m 545.45637,136.02966 c -0.90075,-1.21534 -3.6323,-5.19281 -6.07013,-8.83883 -2.43782,-3.64602 -5.18488,-7.66327 -6.10458,-8.92723 -10.07194,-13.84207 -22.12102,-25.437536 -35.83206,-34.483091 -14.40919,-9.50614 -29.69475,-15.521021 -45.07806,-17.738255 -3.46944,-0.500058 -5.62562,-0.695727 -9.89949,-0.898355 -5.38608,-0.255359 -9.50485,-0.809058 -11.14703,-1.498528 -0.65121,-0.273413 -0.67378,-0.306449 -0.34346,-0.502756 0.45663,-0.27137 6.41515,-0.249596 10.07627,0.03682 7.05016,0.551548 15.8026,1.755386 21.47837,2.9542 11.72696,2.476926 21.40433,6.425207 32.35013,13.198574 18.9552,11.729653 34.75985,27.505381 45.56394,45.480561 2.87543,4.78396 6.8921,12.68327 6.71652,13.20891 -0.04,0.11973 -0.80968,-0.77668 -1.71042,-1.99202 z"
     id="path29"
     transform="scale(0.75)" />
  <path
     style="opacity:1;fill:#f9f9f9;stroke:none;stroke-width:0.848528;stroke-linecap:round;stroke-linejoin:round;paint-order:stroke markers fill"
     d="m 556.11371,204.61332 c -1.11262,-1.66159 -3.77715,-5.99631 -5.81002,-9.45186 -2.30384,-3.91617 -4.88101,-7.88389 -7.57828,-11.66726 -2.665,-3.73811 -3.6449,-5.30236 -3.6449,-5.81849 0,-0.30696 0.0625,-0.28728 0.54846,0.17276 1.99578,1.88932 8.37523,10.94472 12.15542,17.25417 2.95277,4.92842 5.48631,10.01172 5.28737,10.60855 -0.0408,0.12224 -0.47187,-0.37181 -0.95805,-1.09787 z"
     id="path30"
     transform="scale(0.75)" />
  <path
     style="opacity:1;fill:#f9f9f9;stroke:none;stroke-width:0.848528;stroke-linecap:round;stroke-linejoin:round;paint-order:stroke markers fill"
     d="m 550.30583,164.16259 c -6.3665,-3.37009 -27.21937,-16.57863 -28.37866,-17.9755 -0.23536,-0.28359 -0.22026,-0.29752 0.18416,-0.16974 2.85715,0.90269 15.09607,8.08915 25.93922,15.23102 3.40814,2.24478 4.99531,3.45001 4.99531,3.79324 0,0.37682 -0.93309,0.0775 -2.74003,-0.87902 z"
     id="path31"
     transform="scale(0.75)" />
  <path
     style="opacity:1;fill:#f9f9f9;stroke:none;stroke-width:0.15;stroke-linecap:round;stroke-linejoin:round;paint-order:stroke markers fill"
     d="m 549.15567,220.27629 c -0.4019,-0.2683 -1.36917,-1.18855 -2.32692,-2.2138 -3.43647,-3.67865 -7.81292,-9.25819 -7.81313,-9.96094 -3e-5,-0.1093 0.0456,-0.10879 0.22042,0.002 1.24685,0.79344 8.21094,8.98379 9.81493,11.54316 0.17023,0.27163 0.33956,0.60725 0.3396,0.67311 4e-5,0.0638 -0.102,0.0447 -0.2349,-0.044 z"
     id="path32"
     transform="scale(0.75)" />
  <path
     style="opacity:1;fill:#f9f9f9;stroke:none;stroke-width:0.15;stroke-linecap:round;stroke-linejoin:round;paint-order:stroke markers fill"
     d="m 537.03122,205.16587 c -0.21918,-0.15123 -0.53775,-0.40498 -0.95312,-0.75918 -0.16328,-0.13924 -0.47009,-0.39055 -0.68181,-0.55845 -0.86988,-0.68991 -1.52907,-1.32823 -1.81843,-1.76086 -0.22803,-0.34093 -0.24731,-0.53437 -0.0654,-0.65663 0.16349,-0.10991 0.38728,-0.0991 0.58377,0.0283 0.18944,0.12279 1.06331,0.9923 1.42305,1.41593 0.86915,1.02353 1.80887,2.26858 1.80887,2.3966 0,0.0585 -0.12158,0.0152 -0.29688,-0.10572 z"
     id="path33"
     transform="scale(0.75)" />
  <path
     style="opacity:1;fill:#f9f9f9;stroke:none;stroke-width:0.15;stroke-linecap:round;stroke-linejoin:round;paint-order:stroke markers fill"
     d="m 533.79685,231.953 c -0.6502,-0.11104 -1.75105,-0.72325 -3.25,-1.8074 -1.16802,-0.84479 -3.15894,-2.45563 -4.39063,-3.55243 -2.82675,-2.51717 -4.79367,-3.70279 -6.78372,-4.0891 -0.65654,-0.12745 -1.10891,-0.15657 -1.97744,-0.12732 -1.32078,0.0445 -2.43739,0.0335 -2.86383,-0.0282 -1.53483,-0.22217 -2.98743,-0.70081 -3.9629,-1.30582 -0.24607,-0.15262 -1.07247,-0.75944 -1.64648,-1.20901 -0.34502,-0.27023 -0.6875,-0.59556 -0.6875,-0.65309 0,-0.13806 0.70299,0.0564 2.26563,0.62663 0.80095,0.2923 1.81647,0.59726 3.125,0.93845 1.71513,0.44721 2.94126,0.64763 3.65544,0.59751 0.75397,-0.0529 1.01643,-0.17736 1.01643,-0.48192 0,-0.24908 -0.29217,-0.73293 -0.85972,-1.42376 -0.6144,-0.74786 -0.90434,-1.16215 -1.03405,-1.47754 -0.12624,-0.30697 -0.0929,-0.45153 0.1173,-0.50812 0.45151,-0.12158 1.77715,0.37303 4.02647,1.50233 0.82322,0.41331 1.42875,0.76201 2.07783,1.19654 4.12888,2.76407 11.02683,8.98052 11.925,10.74684 0.15581,0.30641 0.11592,0.69418 -0.0929,0.903 -0.16631,0.1663 -0.34166,0.20681 -0.65993,0.15246 z"
     id="path34"
     transform="scale(0.75)" />
  <path
     style="opacity:1;fill:#f9f9f9;stroke:none;stroke-width:1.2;stroke-linecap:round;stroke-linejoin:round;paint-order:stroke markers fill"
     d="m 389.99998,223.64656 c -12.03978,-2.22467 -28.77287,-8.98697 -33.41958,-13.50575 -1.85132,-1.80036 -1.89287,-2.56192 -0.23737,-4.35064 1.63585,-1.76749 3.8145,-1.92474 9.40695,-0.67897 10.12434,2.25529 18.311,5.85335 24.99989,10.98752 2.303,1.76771 5.19625,4.78523 5.73043,5.97657 0.45077,1.00531 0.45435,1.09717 0.0582,1.49331 -0.60813,0.60814 -3.48369,0.64242 -6.53853,0.078 z"
     id="path35"
     transform="scale(0.75)" />
  <path
     style="opacity:1;fill:#f9f9f9;stroke:none;stroke-width:0.6;stroke-linecap:round;stroke-linejoin:round;paint-order:stroke markers fill"
     d="m 411.0557,127.58496 c -0.85387,-0.54166 -2.02249,-1.67918 -3.08837,-3.00618 -2.25269,-2.80456 -4.94433,-5.65201 -7.21735,-7.63515 -2.84115,-2.47882 -5.83279,-4.34647 -7.42331,-4.63429 -0.93914,-0.16995 -2.34668,-0.14806 -3.88919,0.0605 -1.95638,0.2645 -2.94463,0.50096 -5.23613,1.25285 -3.24971,1.0663 -5.21417,1.44862 -5.45351,1.06136 -0.12329,-0.19948 0.57333,-0.77507 1.46314,-1.20892 3.32512,-1.62127 9.82781,-2.92212 12.69785,-2.54019 2.12925,0.28335 4.71197,1.27335 6.12698,2.34857 1.99153,1.51331 3.87837,3.38122 6.02695,5.9665 1.30383,1.56884 2.54279,2.95369 4.35934,4.87268 0.78217,0.82628 1.69623,1.89083 2.03125,2.36568 0.94715,1.34245 0.76813,1.83614 -0.39765,1.09661 z"
     id="path36"
     transform="scale(0.75)" />
  <path
     style="opacity:1;fill:#f9f9f9;stroke:none;stroke-width:0.6;stroke-linecap:round;stroke-linejoin:round;paint-order:stroke markers fill"
     d="m 399.80264,139.70589 c 0.20533,-0.38367 2.70127,-2.70712 4.69734,-4.37271 2.95807,-2.46833 5.82587,-4.54898 6.01259,-4.36226 0.0803,0.0803 -1.11667,1.27965 -3.113,3.11916 -2.61329,2.408 -5.81901,4.95251 -6.98918,5.54758 -0.7091,0.3606 -0.76775,0.36719 -0.60775,0.0682 z"
     id="path37"
     transform="scale(0.75)" />
  <path
     style="opacity:1;fill:#f9f9f9;stroke:none;stroke-width:0.6;stroke-linecap:round;stroke-linejoin:round;paint-order:stroke markers fill"
     d=""
     id="path38"
     transform="scale(0.75)" />
  <path
     style="opacity:1;fill:#f9f9f9;stroke:none;stroke-width:0.212132;stroke-linecap:round;stroke-linejoin:round;paint-order:stroke markers fill"
     d="m 393.5491,141.07094 c -0.55763,-0.15692 -0.95216,-0.34993 -1.03617,-0.5069 -0.0625,-0.11674 0.0671,-0.24178 0.32154,-0.31033 0.26137,-0.0704 1.53953,-0.14755 1.90787,-0.11514 0.57501,0.0506 0.99437,0.22804 0.99437,0.42076 0,0.11308 -0.32175,0.37782 -0.56863,0.46788 -0.28176,0.10279 -1.3104,0.13057 -1.61898,0.0437 z"
     id="path39"
     transform="scale(0.75)" />
  <path
     style="opacity:1;fill:#f9f9f9;stroke:none;stroke-width:0.212132;stroke-linecap:round;stroke-linejoin:round;paint-order:stroke markers fill"
     d="m 386.47803,131.79125 c -0.27866,-0.0885 -0.63736,-0.28326 -0.96099,-0.52177 -0.35401,-0.26091 -0.94016,-0.87585 -1.18658,-1.24486 -0.15051,-0.22539 -0.16721,-0.27278 -0.11467,-0.32533 0.0801,-0.0801 0.40356,3.1e-4 1.0248,0.25465 0.24307,0.0995 0.57857,0.22912 0.74556,0.28801 1.14148,0.40259 1.80602,1.24259 1.22197,1.54461 -0.15458,0.0799 -0.48645,0.0821 -0.73009,0.005 z"
     id="path40"
     transform="scale(0.75)" />
  <path
     style="opacity:1;fill:url(#linearGradient53);stroke:none;stroke-width:0.212132;stroke-linecap:round;stroke-linejoin:round;paint-order:stroke markers fill;fill-opacity:1"
     d="m 391.16636,126.58949 c -1.53567,-0.22397 -2.61017,-1.11278 -2.88126,-2.38333 -0.16833,-0.78891 0.0797,-2.06229 0.5144,-2.64126 0.18901,-0.25172 0.66577,-0.61813 1.05113,-0.80784 0.87715,-0.43182 1.79835,-0.66425 3.00251,-0.75757 1.52111,-0.11788 2.89801,0.19679 3.50143,0.80021 0.59266,0.59266 0.50183,1.70085 -0.2413,2.94398 -0.82969,1.38794 -2.25863,2.53981 -3.50139,2.82247 -0.3411,0.0776 -1.00063,0.0882 -1.44552,0.0233 z"
     id="path41"
     transform="scale(0.75)" />
  <path
     style="opacity:1;fill:#f9f9f9;stroke:none;stroke-width:0.6;stroke-linecap:round;stroke-linejoin:round;paint-order:stroke markers fill"
     d="m 318.80599,112.62897 c -0.46295,-0.25182 -1.03421,-1.36828 -1.02462,-2.00249 0.0212,-1.40276 2.32742,-4.91299 5.87289,-8.93898 1.74592,-1.98255 5.56282,-5.728341 7.32591,-7.189443 2.3126,-1.91648 8.38494,-6.299599 8.52852,-6.156024 0.11619,0.116195 -1.1297,1.546609 -6.02373,6.915866 -4.00767,4.396826 -7.26737,8.732391 -9.28745,12.352781 -1.16753,2.09246 -1.762,2.96189 -2.68945,3.9334 -1.12988,1.18356 -1.93005,1.50483 -2.70207,1.08489 z"
     id="path42"
     transform="scale(0.75)" />
  <path
     style="opacity:1;fill:#000000;fill-opacity:1;stroke:none;stroke-width:3.6;stroke-linecap:round;stroke-linejoin:round;paint-order:stroke markers fill"
     d="m 173.3328,163.69892 c -0.44416,0.55675 -1.77213,1.20833 -2.17021,1.80931 -0.3791,0.57234 -0.31229,1.4252 -0.62992,2.1193 -1.69978,3.71451 -2.34293,-0.39365 -0.30608,-4.46738 0.25249,-0.50498 2.39834,-3.59212 2.64258,-2.85938 0.16851,1.12098 0.53347,2.30682 0.46363,3.39815 z"
     id="path47"
     sodipodi:nodetypes="sssscs" />
  <path
     style="opacity:1;fill:#b3b3b3;fill-opacity:1;stroke:none;stroke-width:0.212132;stroke-linecap:round;stroke-linejoin:round;paint-order:stroke markers fill"
     d="m 399.9363,295.81828 c -2.40679,0.0667 -4.79704,0.3943 -7.18544,0.67743 -3.94391,0.51689 -7.90582,1.04293 -11.73855,2.14113 -1.63941,0.4354 -3.22762,1.03629 -4.82418,1.59952 -2.69219,0.92734 -5.49051,1.49118 -8.21836,2.29858 -3.90084,1.17654 -7.544,3.04494 -11.10628,4.99323 -6.81101,3.79678 -13.22275,8.3145 -19.08382,13.45804 -2.34896,2.0983 -4.6544,4.26269 -6.69686,6.66534 -0.38948,0.53167 -0.7962,1.0713 -1.05798,1.67808 -4.8e-4,0.19328 0.28291,0.0659 0.39274,0.0801 1.57894,-0.16228 3.14897,-0.44703 4.65413,-0.95995 4.34063,-1.40435 8.43865,-3.44732 12.47226,-5.55591 4.5816,-2.41157 8.96439,-5.17732 13.27095,-8.04567 3.03091,-1.96776 6.04289,-3.9737 9.1946,-5.74552 0.63635,-0.31731 1.26364,-0.73354 1.98131,-0.83002 0.27635,0.0105 0.22432,0.37316 0.22149,0.56279 -0.0628,0.48561 -0.0351,1.03684 -0.32973,1.45625 -0.0889,0.13793 -0.43244,0.16692 -0.33422,0.38419 0.12727,0.14031 0.40848,0.11723 0.38791,0.36866 0.12879,0.13855 0.31598,-0.0886 0.44815,-0.1249 0.76398,-0.36881 1.6495,-0.25542 2.47499,-0.3301 2.85336,-0.12807 5.63489,-0.91656 8.29594,-1.91463 4.44922,-1.71804 8.64024,-4.14909 12.26078,-7.26089 1.4557,-1.32419 2.85141,-2.72156 4.12181,-4.22565 0.28306,-0.38588 0.66093,-0.7482 0.7785,-1.2244 0.006,-0.19668 -0.26232,-0.13023 -0.38014,-0.1457 z"
     id="path51"
     transform="scale(0.75)" />
  <path
     style="opacity:1;fill:#b3b3b3;fill-opacity:1;stroke:none;stroke-width:0.3;stroke-linecap:round;stroke-linejoin:round;paint-order:stroke markers fill"
     d="m 398.83118,401.48218 c -1.05224,0.17543 -1.96602,0.7958 -2.89087,1.29253 -3.8015,2.27418 -7.36631,4.93025 -10.76081,7.77152 -2.36906,2.04678 -4.70379,4.1576 -6.74225,6.54018 -0.28467,0.40296 -0.75257,0.82258 -0.68383,1.35939 0.19855,0.26411 0.60362,0.0425 0.8612,-0.0171 3.11692,-1.25558 5.8363,-3.28756 8.49988,-5.29773 3.64107,-2.82407 7.2023,-5.76754 10.4956,-8.99453 0.59969,-0.65353 1.32691,-1.25204 1.67896,-2.0853 0.13847,-0.33451 -0.10472,-0.61624 -0.45788,-0.56897 z"
     id="path54"
     transform="scale(0.75)" />
  <path
     style="opacity:1;fill:#b3b3b3;fill-opacity:1;stroke:none;stroke-width:0.3;stroke-linecap:round;stroke-linejoin:round;paint-order:stroke markers fill"
     d="m 429.0498,331.45068 c -0.43259,0.21545 -0.67194,0.70376 -0.95728,1.0787 -1.49429,2.40586 -2.67087,4.99084 -3.93437,7.5212 -0.99104,2.10369 -2.05994,4.18064 -2.85774,6.36775 -0.13931,0.1874 0.0427,0.46505 0.24964,0.29432 1.25246,-1.01871 2.1901,-2.36527 3.11548,-3.67456 1.80876,-2.68072 3.22548,-5.62646 4.24552,-8.69347 0.22953,-0.84832 0.5806,-1.73422 0.43209,-2.62477 -0.0367,-0.13423 -0.14186,-0.27105 -0.29334,-0.26917 z"
     id="path55"
     transform="scale(0.75)" />
  <path
     style="opacity:1;fill:#b3b3b3;fill-opacity:1;stroke:none;stroke-width:0.212132;stroke-linecap:round;stroke-linejoin:round;paint-order:stroke markers fill"
     d="m 319.54528,452.2559 c -0.6445,0.13372 -1.18988,0.54667 -1.74964,0.87283 -2.16759,1.4152 -4.22645,3.00394 -6.12567,4.76376 -2.18867,2.11468 -4.027,4.5719 -5.61816,7.15966 -0.83435,1.42012 -1.66617,2.88116 -2.07353,4.48972 -0.0803,0.46209 -0.23064,0.99028 -0.003,1.43181 0.18932,0.25948 0.5218,0.005 0.70098,-0.13543 0.93535,-0.82582 1.6317,-1.87846 2.38451,-2.86408 1.88525,-2.625 3.78407,-5.24672 5.92819,-7.66985 1.90624,-2.22261 3.97705,-4.30148 5.83781,-6.56399 0.31566,-0.42997 0.70311,-0.8355 0.89536,-1.33864 0.0215,-0.10735 -0.0847,-0.15906 -0.17652,-0.14579 z"
     id="path56"
     transform="scale(0.75)" />
  <path
     style="opacity:1;fill:#000000;fill-opacity:1;stroke:none;stroke-width:0.318198;stroke-linecap:round;stroke-linejoin:round;stroke-opacity:1;paint-order:stroke markers fill"
     d="m 228.19847,94.593742 c -2.43421,1.989045 -4.52026,4.383976 -6.68551,6.661078 -4.32654,4.6446 -7.93314,10.0307 -9.95748,16.08267 -2.31497,6.80532 -2.7981,14.11845 -2.4001,21.25628 0.2478,1.79743 0.20509,3.79263 1.4576,5.18652 0.78769,0.57141 1.36154,-1.67934 0.93838,-1.9077 0.0281,-4.82517 -0.86941,-9.69546 0.12178,-14.48578 1.50477,-7.94008 5.19197,-15.25762 9.10227,-22.25447 1.94202,-3.45352 4.36905,-6.591753 6.96648,-9.571203 -0.003,-0.1995 1.01631,-0.919132 0.45658,-0.967395 z"
     id="path60" />
</svg>
